<svg width="685" height="457" viewBox="0 0 685 457" fill="none" xmlns="http://www.w3.org/2000/svg">
<g clipPath="url(#clip0_22093_83479)">
<path d="M430.008 378.57H443.716C450.588 378.57 456.162 384.149 456.162 391.032C456.162 397.914 450.591 403.493 443.716 403.493H209.152C202.279 403.493 196.706 397.914 196.706 391.032C196.706 384.149 202.277 378.57 209.152 378.57H221.763H430.008Z" fill="white"/>
<path d="M420.242 328.754H232.624V378.602H420.242V328.754Z" fill="white"/>
<path d="M420.242 379.152H232.624C232.319 379.152 232.074 378.905 232.074 378.602V328.754C232.074 328.45 232.321 328.205 232.624 328.205C232.928 328.205 233.173 328.452 233.173 328.754V378.051H419.692V328.754C419.692 328.45 419.94 328.205 420.242 328.205C420.546 328.205 420.791 328.452 420.791 328.754V378.602C420.794 378.905 420.546 379.152 420.242 379.152Z" fill="black"/>
<path d="M443.713 404.046H209.152C201.985 404.046 196.156 398.209 196.156 391.035C196.156 383.86 201.985 378.021 209.152 378.021H221.763C222.068 378.021 222.312 378.269 222.312 378.571C222.312 378.876 222.065 379.12 221.763 379.12H209.152C202.592 379.12 197.255 384.464 197.255 391.032C197.255 397.6 202.592 402.944 209.152 402.944H443.713C450.274 402.944 455.61 397.6 455.61 391.032C455.61 384.464 450.274 379.12 443.713 379.12H430.006C429.701 379.12 429.457 378.873 429.457 378.571C429.457 378.266 429.704 378.021 430.006 378.021H443.713C450.881 378.021 456.709 383.858 456.709 391.032C456.712 398.207 450.881 404.046 443.713 404.046Z" fill="black"/>
<path d="M413.254 341.011H239.613C239.309 341.011 239.064 340.764 239.064 340.461C239.064 340.159 239.311 339.912 239.613 339.912H413.254C413.559 339.912 413.804 340.159 413.804 340.461C413.804 340.764 413.557 341.011 413.254 341.011Z" fill="black"/>
<path d="M551.055 302.229C551.055 316.873 539.176 328.74 524.529 328.725L89.4637 328.265C80.6285 328.265 73.4639 321.093 73.4639 312.245V16.5688C73.4639 7.72098 80.626 0.548828 89.4637 0.548828H535.055C543.89 0.548828 551.055 7.72098 551.055 16.5688V186.695V302.229Z" fill="white"/>
<path d="M551.055 25.9191H73.4639C73.1593 25.9191 72.9146 25.6719 72.9146 25.3697C72.9146 25.065 73.1618 24.8203 73.4639 24.8203H551.053C551.357 24.8203 551.602 25.0675 551.602 25.3697C551.604 25.6744 551.357 25.9191 551.055 25.9191Z" fill="black"/>
<path d="M88.1002 18.9851C85.3632 18.9851 83.1382 16.7551 83.1382 14.0131C83.1382 11.2711 85.3657 9.04102 88.1002 9.04102C90.8372 9.04102 93.0622 11.2711 93.0622 14.0131C93.0647 16.7551 90.8372 18.9851 88.1002 18.9851ZM88.1002 10.1423C85.9701 10.1423 84.237 11.8779 84.237 14.0131C84.237 16.1482 85.9701 17.8838 88.1002 17.8838C90.2304 17.8838 91.9635 16.1482 91.9635 14.0131C91.9635 11.8779 90.2304 10.1423 88.1002 10.1423Z" fill="black"/>
<path d="M100.979 18.9851C98.2416 18.9851 96.0166 16.7551 96.0166 14.0131C96.0166 11.2711 98.2441 9.04102 100.979 9.04102C103.716 9.04102 105.941 11.2711 105.941 14.0131C105.943 16.7551 103.716 18.9851 100.979 18.9851ZM100.979 10.1423C98.8485 10.1423 97.1154 11.8779 97.1154 14.0131C97.1154 16.1482 98.8485 17.8838 100.979 17.8838C103.109 17.8838 104.842 16.1482 104.842 14.0131C104.842 11.8779 103.109 10.1423 100.979 10.1423Z" fill="black"/>
<path d="M113.857 18.9851C111.12 18.9851 108.895 16.7551 108.895 14.0131C108.895 11.2711 111.123 9.04102 113.857 9.04102C116.594 9.04102 118.819 11.2711 118.819 14.0131C118.822 16.7551 116.594 18.9851 113.857 18.9851ZM113.857 10.1423C111.727 10.1423 109.994 11.8779 109.994 14.0131C109.994 16.1482 111.727 17.8838 113.857 17.8838C115.987 17.8838 117.72 16.1482 117.72 14.0131C117.72 11.8779 115.987 10.1423 113.857 10.1423Z" fill="black"/>
<path d="M513.237 329.305L89.4638 328.818C80.3389 328.818 72.9146 321.383 72.9146 312.248V16.5719C72.9146 7.43437 80.3389 0 89.4638 0H535.055C544.18 0 551.604 7.43437 551.604 16.5694V167.804C551.604 168.109 551.357 168.353 551.055 168.353C550.75 168.353 550.506 168.106 550.506 167.804V16.5694C550.506 8.0387 543.576 1.0988 535.058 1.0988H89.4638C80.9457 1.0988 74.0158 8.0387 74.0158 16.5694V312.246C74.0158 320.777 80.9457 327.716 89.4638 327.716L513.237 328.203C513.541 328.203 513.786 328.451 513.786 328.753C513.786 329.057 513.539 329.305 513.237 329.305Z" fill="black"/>
<path d="M430.578 266.921H201.967C201.663 266.921 201.418 266.674 201.418 266.372C201.418 266.07 201.665 265.822 201.967 265.822H430.58C430.885 265.822 431.13 266.07 431.13 266.372C431.13 266.674 430.883 266.921 430.578 266.921Z" fill="black"/>
<path d="M627.953 162.527L629.426 164.285C646.096 184.174 655.545 209.126 656.237 235.08C657.845 295.534 660.615 407.027 660.27 445.665C660.217 451.509 655.47 456.214 649.634 456.214H589.101C585.003 456.214 582.713 451.479 585.253 448.26L594.133 437.007L605.703 299.725L559.044 449.101C557.538 453.364 553.513 456.216 548.995 456.216H484.441C480.208 456.216 477.963 451.209 480.778 448.042L492.715 434.607L578.972 203.253L627.953 162.527Z" fill="white"/>
<path d="M649.631 456.761H589.098C586.993 456.761 585.113 455.582 584.191 453.684C583.27 451.784 583.509 449.574 584.818 447.915L593.596 436.79L604.731 304.667L559.568 449.259C557.983 453.752 553.735 456.758 548.995 456.758H484.441C482.266 456.758 480.361 455.525 479.467 453.537C478.573 451.546 478.917 449.299 480.366 447.668L492.235 434.31L578.457 203.051C578.492 202.961 578.547 202.881 578.622 202.821L627.601 162.098C627.836 161.903 628.18 161.936 628.375 162.168L629.848 163.926C646.527 183.829 656.094 209.092 656.786 235.061C658.439 297.215 661.164 407.227 660.819 445.665C660.762 451.786 655.745 456.761 649.631 456.761ZM605.702 299.173C605.737 299.173 605.772 299.176 605.81 299.183C606.084 299.238 606.274 299.49 606.252 299.77L594.682 437.052C594.675 437.16 594.632 437.262 594.567 437.347L585.687 448.6C584.626 449.943 584.438 451.666 585.188 453.207C585.934 454.745 587.398 455.662 589.103 455.662H649.636C655.148 455.662 659.673 451.174 659.723 445.66C660.065 407.24 657.343 297.243 655.69 235.096C655.006 209.374 645.531 184.351 629.009 164.638L627.888 163.302L579.439 203.578L493.231 434.795C493.209 434.857 493.174 434.917 493.127 434.967L481.19 448.402C480.033 449.703 479.759 451.499 480.473 453.09C481.185 454.676 482.706 455.662 484.444 455.662H548.997C553.273 455.662 557.104 452.95 558.527 448.914L605.178 299.558C605.25 299.326 605.468 299.173 605.702 299.173Z" fill="black"/>
<path d="M560.018 439.679C560.01 439.679 560.003 439.679 559.995 439.679C539.156 438.8 518.076 437.217 497.339 434.974C497.037 434.942 496.82 434.67 496.852 434.368C496.885 434.065 497.165 433.846 497.459 433.881C518.171 436.118 539.228 437.699 560.045 438.578C560.35 438.59 560.585 438.848 560.572 439.15C560.555 439.447 560.31 439.679 560.018 439.679Z" fill="black"/>
<path d="M639.223 439.195C625.421 439.195 611.581 438.818 597.874 438.064C597.569 438.047 597.339 437.789 597.354 437.485C597.372 437.18 597.639 436.935 597.934 436.965C618.201 438.079 638.766 438.369 659.056 437.832C659.336 437.822 659.613 438.064 659.621 438.366C659.628 438.671 659.388 438.923 659.086 438.931C652.486 439.108 645.858 439.195 639.223 439.195Z" fill="black"/>
<path d="M605.982 298.421C605.937 298.421 605.89 298.416 605.842 298.404C605.547 298.327 605.373 298.027 605.45 297.732L618.246 248.99C619.644 243.666 621.387 238.232 625.917 235.395C626.175 235.233 626.514 235.31 626.677 235.57C626.839 235.827 626.759 236.167 626.502 236.329C622.306 238.954 620.706 243.948 619.31 249.27L606.514 298.012C606.449 298.259 606.227 298.421 605.982 298.421Z" fill="black"/>
<path d="M574.427 67.207C574.427 67.207 566.818 91.9949 576.672 94.1176C584.281 95.7558 593.368 91.94 593.608 91.3731C593.848 90.8062 597.217 75.2532 597.217 75.2532L574.427 67.207Z" fill="white"/>
<path d="M580.69 95.0636C579.287 95.0636 577.886 94.9412 576.557 94.6565C574.891 94.2969 573.583 93.3255 572.666 91.7647C568.543 84.7349 573.68 67.7659 573.9 67.0467C573.945 66.9044 574.045 66.7845 574.177 66.7171C574.312 66.6496 574.467 66.6397 574.609 66.6896L597.402 74.7333C597.664 74.8257 597.814 75.0979 597.756 75.3676C597.192 77.9723 594.362 91.0005 594.115 91.5849C593.736 92.4814 587.163 95.0636 580.69 95.0636ZM574.791 67.9183C573.94 70.91 570.132 85.2668 573.615 91.2053C574.379 92.5064 575.416 93.283 576.787 93.5777C583.854 95.0985 592.215 91.7272 593.126 91.0779C593.421 90.0465 595.291 81.5384 596.577 75.6073L574.791 67.9183Z" fill="black"/>
<path d="M579.744 88.1293L582.161 107.069L601.807 106.272L596.408 78.1152L579.744 88.1293Z" fill="white"/>
<path d="M582.158 107.619C581.884 107.619 581.649 107.414 581.614 107.139L579.199 88.2023C579.162 87.9002 579.374 87.6255 579.676 87.5855C579.976 87.5505 580.253 87.7603 580.293 88.0625L582.645 106.5L601.15 105.751L595.871 78.2207C595.813 77.9211 596.011 77.6339 596.308 77.5764C596.607 77.519 596.895 77.7138 596.952 78.0135L602.354 106.17C602.384 106.327 602.344 106.49 602.244 106.615C602.144 106.74 601.994 106.817 601.834 106.822L582.186 107.619C582.173 107.619 582.166 107.619 582.158 107.619Z" fill="black"/>
<path d="M594.127 57.4317C594.127 57.4317 591.528 50.7815 580.587 50.8964C576.472 50.9388 574.127 50.5967 572.803 50.1522C570.109 49.2482 567.122 50.5867 566.213 53.2787C565.579 55.1567 565.988 57.5316 568.915 60.326C568.915 60.326 564.298 64.454 571.602 68.3498C571.602 68.3498 569.577 74.2433 578.65 75.5444C578.65 75.5444 580.053 72.5951 582.915 74.2533C584.598 75.2297 584.743 79.1504 581.736 82.6241C581.736 82.6241 586.516 92.1787 595.111 92.0763C603.709 91.9714 603.719 81.8824 603.784 78.5686C603.849 75.2547 608.579 66.3095 602.925 59.6892C599.534 55.7086 594.127 57.4317 594.127 57.4317Z" fill="black"/>
<path d="M582.258 76.027C582.258 76.027 579.341 74.2339 579.808 79.8703L582.258 76.027Z" fill="white"/>
<path d="M579.808 80.4196C579.526 80.4196 579.284 80.2023 579.261 79.9152C579.062 77.5028 579.426 76.0469 580.38 75.46C581.172 74.9731 582.113 75.2927 582.545 75.5574C582.805 75.7172 582.885 76.0544 582.725 76.3141C582.565 76.5713 582.231 76.6537 581.971 76.4964C581.958 76.4889 581.354 76.1468 580.95 76.399C580.697 76.5563 580.135 77.2031 580.353 79.8228C580.378 80.1249 580.153 80.3921 579.851 80.4171C579.838 80.4196 579.823 80.4196 579.808 80.4196Z" fill="black"/>
<path d="M540.502 134.537L535.103 132.409L526.947 141.077C526.947 141.077 500.728 123.167 487.56 111.325C474.39 99.4825 461.796 92.5901 458.66 93.3567C455.525 94.1234 456.704 98.4861 463.252 102.259C463.252 102.259 457.543 103.83 458.66 108.633C458.66 108.633 454.592 108.725 455.51 114.554C455.51 114.554 450.873 117.048 452.943 122.22C455.014 127.392 460.762 127.539 460.762 127.539C460.762 127.539 476.372 145.964 492.792 162.027C507.87 176.775 530.688 180.329 549.444 170.697C555.298 167.69 560.724 162.126 564.473 158.006L540.502 134.537Z" fill="white"/>
<path d="M527.169 176.639C514.485 176.639 501.949 171.754 492.405 162.417C477.017 147.363 462.158 130.025 460.492 128.072C459.304 127.98 454.382 127.298 452.431 122.423C450.548 117.721 453.822 115.019 454.913 114.277C454.644 112.192 454.976 110.576 455.897 109.47C456.584 108.646 457.441 108.311 458.015 108.174C457.586 104.977 459.988 103.019 461.986 102.13C458.31 99.7804 456.172 97.0034 456.474 94.8907C456.624 93.8419 457.353 93.1052 458.527 92.818C461.976 91.9789 474.899 99.1985 487.925 110.913C500.046 121.814 523.56 138.081 526.867 140.353L534.701 132.03C534.855 131.868 535.095 131.813 535.302 131.895L540.701 134.023C540.769 134.05 540.831 134.09 540.884 134.143L564.855 157.607C565.067 157.814 565.077 158.152 564.877 158.371C561.204 162.409 555.632 168.133 549.691 171.182C542.554 174.851 534.833 176.639 527.169 176.639ZM459.231 93.8444C459.064 93.8444 458.917 93.8594 458.789 93.8918C458.06 94.0691 457.648 94.4587 457.566 95.0505C457.356 96.5164 459.131 99.2509 463.526 101.783C463.719 101.893 463.826 102.108 463.796 102.33C463.769 102.55 463.611 102.732 463.397 102.792C463.184 102.852 458.212 104.285 459.194 108.511C459.231 108.673 459.194 108.843 459.091 108.973C458.989 109.103 458.834 109.183 458.669 109.185C458.627 109.188 457.521 109.235 456.731 110.194C455.977 111.108 455.75 112.546 456.052 114.472C456.09 114.702 455.975 114.931 455.77 115.041C455.6 115.134 451.595 117.379 453.453 122.019C455.358 126.781 460.555 126.986 460.775 126.991C460.929 126.996 461.079 127.066 461.179 127.185C461.336 127.37 476.962 145.775 493.174 161.635C508.147 176.282 530.66 179.728 549.19 170.211C554.783 167.339 560.093 161.975 563.706 158.029L540.194 135.014L535.245 133.061L527.344 141.457C527.159 141.655 526.857 141.687 526.632 141.535C526.37 141.355 500.234 123.467 487.188 111.737C474.574 100.39 462.685 93.8444 459.231 93.8444Z" fill="black"/>
<path d="M460.939 128.343C460.764 128.343 460.595 128.261 460.487 128.109C458.812 125.704 457.251 123.177 455.847 120.597C455.702 120.33 455.802 119.998 456.067 119.85C456.334 119.705 456.669 119.803 456.814 120.07C458.197 122.612 459.735 125.104 461.389 127.477C461.561 127.727 461.501 128.069 461.251 128.244C461.156 128.311 461.047 128.343 460.939 128.343Z" fill="black"/>
<path d="M461.469 117.366C461.342 117.366 461.212 117.321 461.107 117.231C459.529 115.857 457.438 115.126 455.341 115.221C455.333 115.221 455.323 115.221 455.316 115.221C455.024 115.221 454.781 114.991 454.766 114.696C454.751 114.394 454.989 114.137 455.291 114.122C457.648 114.019 460.04 114.846 461.829 116.402C462.058 116.602 462.083 116.949 461.883 117.178C461.776 117.301 461.624 117.366 461.469 117.366Z" fill="black"/>
<path d="M465.931 112.706C465.794 112.706 465.659 112.656 465.552 112.554C463.676 110.766 461.229 109.597 458.662 109.263C458.362 109.223 458.147 108.948 458.187 108.646C458.227 108.346 458.502 108.129 458.804 108.171C461.601 108.536 464.268 109.81 466.311 111.757C466.531 111.967 466.538 112.314 466.331 112.534C466.221 112.649 466.076 112.706 465.931 112.706Z" fill="black"/>
<path d="M469.637 106.905C469.517 106.905 469.397 106.868 469.298 106.788C467.322 105.235 465.155 103.931 462.855 102.915C462.577 102.792 462.45 102.468 462.572 102.188C462.695 101.911 463.019 101.786 463.299 101.908C465.682 102.96 467.929 104.311 469.977 105.921C470.217 106.109 470.256 106.456 470.069 106.693C469.962 106.833 469.799 106.905 469.637 106.905Z" fill="black"/>
<path d="M599.769 50.5317C597.279 49.2131 594.974 48.6188 593.755 50.2096C592.537 51.8003 593.476 54.7346 595.601 55.9732C594.127 55.0293 592.599 54.0628 590.966 53.6883C589.333 53.3112 587.547 53.6783 586.918 54.9669C586.363 56.1006 586.838 57.6639 587.734 58.8826C588.179 59.4844 588.711 60.0213 589.283 60.5233C588.194 60.1786 586.96 60.336 586.289 61.0527C585.145 62.2739 585.127 64.2042 586.286 65.8574C587.265 67.2559 589.043 68.7717 590.744 70.1028C592.632 71.6761 594.097 72.7774 596.792 74.6603C593.735 74.1883 588.479 73.6589 588.916 77.4023C589.522 82.6141 612.782 85.6483 616.413 87.8733C623.208 92.0388 628.47 95.0855 628.47 95.0855C631.584 94.8582 643.543 79.5674 645.446 74.473C642.589 72.1156 618.618 56.4228 608.809 50.6116C607.163 49.6377 605.44 48.6438 603.654 48.4015C601.864 48.1593 600.008 48.921 599.769 50.5317Z" fill="white"/>
<path d="M628.467 95.6331C628.37 95.6331 628.275 95.6081 628.192 95.5582C628.14 95.5282 622.846 92.4591 616.123 88.3386C614.962 87.6269 611.473 86.7803 607.43 85.7989C596.882 83.2392 588.778 80.9991 588.366 77.4605C588.244 76.3967 588.511 75.5401 589.163 74.9133C590.339 73.7795 592.577 73.6671 594.689 73.8419C593.011 72.6333 591.815 71.7068 590.389 70.5206C588.841 69.3094 586.913 67.7112 585.831 66.1703C584.528 64.3074 584.548 62.0998 585.884 60.6739C586.341 60.1869 587.023 59.8897 587.779 59.8148C587.6 59.6125 587.437 59.4102 587.287 59.2055C586.398 57.9968 585.704 56.1863 586.418 54.7204C587.222 53.0747 589.34 52.7425 591.086 53.1471C591.77 53.3044 592.434 53.5591 593.076 53.8663C592.931 53.5292 592.821 53.1771 592.751 52.8224C592.527 51.6887 592.729 50.6423 593.318 49.8732C594.916 47.7855 597.883 48.9667 599.427 49.7333C600.088 48.2175 602.014 47.6206 603.724 47.8504C605.682 48.1151 607.57 49.2314 609.086 50.1304C619.005 56.0065 642.911 71.6618 645.793 74.0417C645.975 74.1916 646.04 74.4388 645.958 74.6586C644.027 79.8329 632.041 95.3709 628.507 95.6281C628.494 95.6331 628.482 95.6331 628.467 95.6331ZM593.186 74.8733C591.882 74.8733 590.596 75.0631 589.927 75.7074C589.53 76.0895 589.378 76.6214 589.46 77.3356C589.817 80.3948 600.573 83.0044 607.69 84.73C611.993 85.7739 615.389 86.598 616.697 87.3996C622.741 91.1031 627.625 93.9549 628.574 94.5068C631.366 93.8326 642.412 80.2849 644.779 74.6436C640.816 71.6044 618.121 56.7631 608.521 51.0769C607.091 50.2303 605.31 49.1739 603.572 48.9392C602.119 48.7394 600.5 49.3138 600.308 50.6074C600.281 50.7847 600.171 50.937 600.011 51.0169C599.851 51.0968 599.661 51.0943 599.506 51.0119C596.789 49.571 595.046 49.4137 594.187 50.5374C593.793 51.0519 593.665 51.7861 593.828 52.6052C594.04 53.679 594.704 54.6879 595.593 55.3122C595.693 55.3771 595.793 55.4396 595.89 55.502C596.143 55.6643 596.22 55.9965 596.063 56.2537C595.905 56.5084 595.576 56.5933 595.316 56.441C595.204 56.3761 595.094 56.3061 594.986 56.2312C593.708 55.4171 592.282 54.5481 590.833 54.2159C589.557 53.9212 587.939 54.1035 587.402 55.1998C586.99 56.0439 587.292 57.3575 588.169 58.5487C588.541 59.0556 589.023 59.5651 589.635 60.0995C589.832 60.2718 589.88 60.5565 589.752 60.7837C589.625 61.011 589.353 61.1159 589.108 61.0385C588.166 60.7413 587.17 60.8986 586.681 61.418C585.709 62.4544 585.729 64.1076 586.725 65.531C587.734 66.9695 589.69 68.5752 591.073 69.659C592.941 71.2148 594.402 72.3136 597.097 74.1991C597.306 74.3464 597.386 74.6186 597.291 74.8558C597.196 75.0931 596.952 75.2304 596.697 75.1955C596.015 75.0956 594.589 74.8733 593.186 74.8733Z" fill="black"/>
<path d="M607.612 81.9432C607.515 81.9432 607.418 81.9182 607.328 81.8633C607.248 81.8134 599.204 76.9362 596.485 75.1132C596.233 74.9434 596.165 74.6013 596.335 74.349C596.505 74.0968 596.847 74.0294 597.099 74.1992C599.799 76.0072 607.82 80.8719 607.9 80.9218C608.159 81.0792 608.242 81.4188 608.084 81.6785C607.98 81.8508 607.797 81.9432 607.612 81.9432Z" fill="black"/>
<path d="M602.7 71.1495C602.583 71.1495 602.463 71.1121 602.363 71.0322C598.517 68.0304 593.588 64.4294 589.627 61.535L588.908 61.0106C588.663 60.8308 588.608 60.4862 588.788 60.2415C588.968 59.9967 589.313 59.9418 589.557 60.1216L590.276 60.646C594.245 63.5453 599.182 67.1514 603.04 70.1656C603.28 70.3529 603.322 70.6975 603.135 70.9373C603.027 71.0771 602.865 71.1495 602.7 71.1495Z" fill="black"/>
<path d="M607.308 64.5272C607.201 64.5272 607.091 64.4948 606.996 64.4298L595.558 56.4935C595.309 56.3212 595.246 55.9766 595.421 55.7268C595.593 55.4771 595.938 55.4147 596.188 55.5895L607.625 63.5258C607.875 63.6981 607.937 64.0427 607.762 64.2925C607.653 64.4423 607.483 64.5272 607.308 64.5272Z" fill="black"/>
<path d="M610.779 58.4438C610.667 58.4438 610.554 58.4089 610.457 58.3389C607.106 55.9066 603.617 53.5717 600.088 51.399C599.829 51.2392 599.749 50.8996 599.908 50.6424C600.068 50.3851 600.405 50.3027 600.665 50.4626C604.216 52.6502 607.727 55.0026 611.101 57.4499C611.348 57.6272 611.401 57.9718 611.224 58.2191C611.116 58.3664 610.949 58.4438 610.779 58.4438Z" fill="black"/>
<path d="M646.837 193.932C646.62 193.932 646.413 193.802 646.328 193.588L639.8 177.463C639.685 177.181 639.822 176.861 640.105 176.746C640.387 176.631 640.706 176.766 640.821 177.051L647.349 193.176C647.464 193.458 647.327 193.777 647.044 193.892C646.977 193.92 646.907 193.932 646.837 193.932Z" fill="black"/>
<path d="M633.941 65.5508C633.941 65.5508 631.264 77.3229 617.762 89.2673C622.112 93.4103 639.038 106.753 639.038 106.753C639.038 106.753 601.142 105.295 590.327 104.89C571.707 104.194 556.622 108.893 547.624 117.864L526.22 138.046L497.951 117.604L473.491 142.989L496.75 166.056C513.936 182.273 540.764 182.286 557.965 166.081L567.837 157.146L570.416 211.419L654.002 199.339L642.377 143.153C642.377 143.153 682.658 145.468 684.858 123.445C688.117 90.8206 633.941 65.5508 633.941 65.5508Z" fill="#19297C"/>
<path d="M661.895 108.201C661.888 108.201 661.88 108.201 661.873 108.201L639.016 107.302C638.711 107.29 638.476 107.035 638.489 106.73C638.501 106.426 638.781 106.193 639.061 106.203L661.918 107.102C662.223 107.115 662.457 107.37 662.445 107.674C662.432 107.969 662.19 108.201 661.895 108.201Z" fill="black"/>
<path d="M567.837 157.695C567.547 157.695 567.302 157.468 567.287 157.173L566.878 149.202C566.863 148.897 567.095 148.64 567.4 148.625C567.702 148.6 567.961 148.842 567.976 149.147L568.386 157.118C568.401 157.423 568.169 157.68 567.864 157.695C567.857 157.695 567.847 157.695 567.837 157.695Z" fill="black"/>
<path d="M297.967 21.4295L187.219 213.387C179.64 226.525 189.122 242.945 204.29 242.945H425.788C440.957 242.945 450.439 226.525 442.86 213.387L332.109 21.4295C324.525 8.28391 305.553 8.28391 297.967 21.4295Z" fill="#19297C"/>
<path d="M306.677 37.5863L205.564 212.842C201.85 219.277 206.495 227.319 213.925 227.319H416.152C423.581 227.319 428.223 219.277 424.512 212.842L323.399 37.5863C319.686 31.1483 310.393 31.1483 306.677 37.5863Z" fill="white"/>
<path d="M287.971 148.731H293.732V153.044H287.971V162.696H282.666V153.044H263.76V149.933L282.354 121.119H287.973V148.731H287.971ZM269.748 148.731H282.666V128.344L282.04 129.485L269.748 148.731Z" fill="black"/>
<path d="M324.53 144.96C324.53 151.146 323.477 155.743 321.366 158.753C319.256 161.759 315.957 163.265 311.47 163.265C307.04 163.265 303.761 161.794 301.631 158.852C299.5 155.911 298.399 151.518 298.322 145.674V138.622C298.322 132.511 299.376 127.971 301.488 125.002C303.598 122.033 306.907 120.547 311.412 120.547C315.88 120.547 319.169 121.98 321.279 124.845C323.389 127.709 324.473 132.132 324.53 138.108V144.96ZM319.256 137.738C319.256 133.265 318.629 130.004 317.373 127.959C316.117 125.914 314.132 124.89 311.412 124.89C308.713 124.89 306.745 125.909 305.509 127.946C304.273 129.984 303.636 133.116 303.598 137.341V145.794C303.598 150.287 304.25 153.603 305.551 155.746C306.852 157.889 308.825 158.957 311.47 158.957C314.074 158.957 316.01 157.948 317.273 155.931C318.537 153.913 319.199 150.734 319.256 146.394V137.738Z" fill="black"/>
<path d="M353.561 148.731H359.322V153.044H353.561V162.696H348.257V153.044H329.35V149.933L347.945 121.119H353.563V148.731H353.561ZM335.338 148.731H348.257V128.344L347.63 129.485L335.338 148.731Z" fill="black"/>
<path d="M276.366 191.396H265.57V200.236H278.111V202.926H262.284V177.98H277.939V180.67H265.568V188.704H276.363V191.396H276.366Z" fill="black"/>
<path d="M291.337 192.834H285.485V202.926H282.182V177.98H290.43C293.237 177.98 295.395 178.62 296.905 179.898C298.416 181.177 299.173 183.04 299.173 185.485C299.173 187.038 298.753 188.392 297.914 189.545C297.075 190.699 295.909 191.561 294.416 192.132L300.267 202.721V202.926H296.743L291.337 192.834ZM285.485 190.145H290.532C292.163 190.145 293.462 189.72 294.426 188.874C295.39 188.027 295.872 186.893 295.872 185.475C295.872 183.929 295.412 182.745 294.493 181.921C293.574 181.097 292.248 180.68 290.515 180.668H285.485V190.145Z" fill="black"/>
<path d="M312.913 192.834H307.062V202.926H303.758V177.98H312.006C314.813 177.98 316.971 178.62 318.482 179.898C319.992 181.177 320.749 183.04 320.749 185.485C320.749 187.038 320.33 188.392 319.49 189.545C318.651 190.699 317.485 191.561 315.992 192.132L321.843 202.721V202.926H318.319L312.913 192.834ZM307.062 190.145H312.109C313.739 190.145 315.038 189.72 316.002 188.874C316.966 188.027 317.448 186.893 317.448 185.475C317.448 183.929 316.988 182.745 316.069 181.921C315.15 181.097 313.824 180.68 312.091 180.668H307.062V190.145Z" fill="black"/>
<path d="M344.518 191.259C344.518 193.704 344.108 195.836 343.287 197.657C342.465 199.48 341.301 200.868 339.796 201.83C338.29 202.789 336.534 203.268 334.526 203.268C332.564 203.268 330.825 202.786 329.307 201.82C327.789 200.856 326.613 199.48 325.774 197.692C324.934 195.904 324.505 193.833 324.482 191.481V189.683C324.482 187.286 324.899 185.165 325.731 183.327C326.563 181.489 327.741 180.081 329.265 179.105C330.788 178.128 332.529 177.639 334.491 177.639C336.487 177.639 338.247 178.121 339.771 179.087C341.294 180.054 342.465 181.452 343.287 183.285C344.108 185.118 344.518 187.251 344.518 189.683V191.259ZM341.249 189.648C341.249 186.691 340.657 184.421 339.471 182.838C338.285 181.257 336.624 180.466 334.491 180.466C332.416 180.466 330.78 181.257 329.589 182.838C328.398 184.421 327.784 186.616 327.749 189.426V191.259C327.749 194.126 328.351 196.378 329.554 198.019C330.758 199.657 332.414 200.476 334.524 200.476C336.644 200.476 338.287 199.702 339.451 198.154C340.615 196.605 341.214 194.388 341.246 191.499V189.648H341.249Z" fill="black"/>
<path d="M358.583 192.834H352.732V202.926H349.428V177.98H357.676C360.483 177.98 362.641 178.62 364.151 179.898C365.662 181.177 366.419 183.04 366.419 185.485C366.419 187.038 365.999 188.392 365.16 189.545C364.321 190.699 363.155 191.561 361.662 192.132L367.513 202.721V202.926H363.989L358.583 192.834ZM352.729 190.145H357.776C359.407 190.145 360.705 189.72 361.669 188.874C362.633 188.027 363.115 186.893 363.115 185.475C363.115 183.929 362.656 182.745 361.737 181.921C360.818 181.097 359.492 180.68 357.759 180.668H352.729V190.145Z" fill="black"/>
<path d="M156.248 50.7051H58.3582C47.9197 50.7051 39.4565 59.1783 39.4565 69.6319V100.311C39.4565 110.764 47.9197 119.238 58.3582 119.238H156.248C166.689 119.238 175.149 110.764 175.149 100.311V69.6319C175.149 59.1783 166.686 50.7051 156.248 50.7051Z" fill="#EAECF3"/>
<path d="M107.302 110.377C121.316 110.377 132.676 99.0017 132.676 84.9697C132.676 70.9377 121.316 59.5625 107.302 59.5625C93.2878 59.5625 81.9272 70.9377 81.9272 84.9697C81.9272 99.0017 93.2878 110.377 107.302 110.377Z" fill="white"/>
<path d="M97.9298 81.2797C99.2235 81.2797 100.272 80.2298 100.272 78.9348C100.272 77.6397 99.2235 76.5898 97.9298 76.5898C96.6361 76.5898 95.5874 77.6397 95.5874 78.9348C95.5874 80.2298 96.6361 81.2797 97.9298 81.2797Z" fill="black"/>
<path d="M116.674 81.2797C117.968 81.2797 119.016 80.2298 119.016 78.9348C119.016 77.6397 117.968 76.5898 116.674 76.5898C115.38 76.5898 114.332 77.6397 114.332 78.9348C114.332 80.2298 115.38 81.2797 116.674 81.2797Z" fill="black"/>
<path d="M96.6738 96.1082C96.5964 96.1082 96.519 96.0932 96.4441 96.0583C96.1694 95.9309 96.0495 95.6038 96.1769 95.3291C96.2069 95.2641 99.271 88.8262 107.13 88.8262C115.079 88.8262 118.268 95.2092 118.3 95.2741C118.432 95.5463 118.32 95.876 118.045 96.0083C117.773 96.1432 117.443 96.0283 117.311 95.7561C117.194 95.5188 114.374 89.9275 107.13 89.9275C99.9927 89.9275 97.2882 95.5538 97.1758 95.7935C97.0809 95.9908 96.8811 96.1082 96.6738 96.1082Z" fill="black"/>
<path d="M176.8 153.713C159.871 153.713 146.099 139.923 146.099 122.971C146.099 122.667 146.346 122.422 146.649 122.422C146.951 122.422 147.198 122.669 147.198 122.971C147.198 139.316 160.476 152.611 176.798 152.611C177.102 152.611 177.347 152.859 177.347 153.161C177.352 153.465 177.105 153.713 176.8 153.713Z" fill="black"/>
<path d="M492.335 91.5342C492.28 91.5342 492.223 91.5267 492.168 91.5067C491.878 91.4143 491.718 91.1046 491.811 90.815L495.607 78.9404C495.652 78.8006 495.749 78.6857 495.879 78.6183C496.009 78.5509 496.159 78.5384 496.298 78.5833C501.4 80.224 506.832 79.777 511.596 77.3272C516.366 74.8724 519.895 70.7045 521.533 65.5876C524.909 55.0316 519.081 43.6865 508.54 40.2977C500.449 37.6956 491.564 40.4975 486.429 47.2701C486.247 47.5098 485.9 47.5598 485.658 47.375C485.415 47.1902 485.368 46.8456 485.553 46.6033C490.969 39.4586 500.341 36.5044 508.877 39.2464C519.992 42.82 526.14 54.7844 522.579 65.9172C520.854 71.3138 517.133 75.7115 512.101 78.3011C507.239 80.8009 501.717 81.3228 496.491 79.787L492.86 91.1446C492.785 91.3843 492.567 91.5342 492.335 91.5342Z" fill="black"/>
<path d="M489.064 101.818C489.009 101.818 488.951 101.811 488.896 101.791C488.607 101.698 488.447 101.389 488.539 101.099L490.123 96.1518C490.215 95.8621 490.522 95.6998 490.814 95.7947C491.104 95.8871 491.264 96.1968 491.171 96.4865L489.588 101.434C489.513 101.668 489.296 101.818 489.064 101.818Z" fill="black"/>
<path d="M421.598 104.578C421.543 104.578 421.486 104.57 421.431 104.55C421.141 104.458 420.981 104.148 421.074 103.858L424.285 93.8144C424.33 93.6745 424.427 93.5597 424.557 93.4922C424.687 93.4248 424.837 93.4123 424.977 93.4573C429.27 94.8383 433.842 94.4612 437.853 92.4009C441.868 90.3357 444.837 86.827 446.216 82.5192C449.058 73.634 444.151 64.0844 435.28 61.2325C428.468 59.0424 420.991 61.4023 416.671 67.1011C416.489 67.3409 416.142 67.3908 415.899 67.206C415.657 67.0212 415.61 66.6766 415.794 66.4343C420.397 60.361 428.368 57.8512 435.618 60.1837C445.065 63.2204 450.291 73.3892 447.265 82.8514C445.799 87.4389 442.635 91.1773 438.357 93.3774C434.249 95.4901 429.587 95.9421 425.169 94.6635L422.122 104.191C422.047 104.43 421.83 104.578 421.598 104.578Z" fill="black"/>
<path d="M418.831 113.277C418.776 113.277 418.719 113.27 418.664 113.25C418.374 113.157 418.214 112.848 418.306 112.558L419.645 108.373C419.737 108.083 420.045 107.921 420.337 108.015C420.626 108.108 420.786 108.417 420.694 108.707L419.355 112.893C419.28 113.13 419.063 113.277 418.831 113.277Z" fill="black"/>
<path d="M499.075 274.29C499.018 274.29 498.958 274.28 498.901 274.26C498.613 274.162 498.458 273.85 498.556 273.563L502.462 261.981C502.509 261.841 502.609 261.728 502.739 261.663C502.869 261.599 503.021 261.588 503.158 261.636C508.14 263.317 513.477 262.957 518.187 260.62C522.899 258.285 526.418 254.252 528.101 249.267C531.572 238.976 526.028 227.783 515.747 224.312C507.851 221.647 499.095 224.264 493.958 230.822C493.771 231.062 493.427 231.104 493.187 230.917C492.947 230.73 492.905 230.385 493.092 230.145C498.516 223.22 507.763 220.456 516.099 223.27C526.957 226.936 532.808 238.756 529.145 249.619C527.369 254.883 523.653 259.139 518.679 261.606C513.869 263.991 508.44 264.425 503.333 262.847L499.6 273.915C499.517 274.145 499.305 274.29 499.075 274.29Z" fill="black"/>
<path d="M495.709 284.321C495.652 284.321 495.592 284.311 495.534 284.291C495.247 284.194 495.092 283.881 495.19 283.594L496.818 278.77C496.915 278.48 497.228 278.325 497.515 278.425C497.802 278.522 497.957 278.834 497.859 279.122L496.231 283.946C496.151 284.176 495.936 284.321 495.709 284.321Z" fill="black"/>
<path d="M70.7498 306.875C109.516 306.875 140.942 275.408 140.942 236.592C140.942 197.775 109.516 166.309 70.7498 166.309C31.9834 166.309 0.557129 197.775 0.557129 236.592C0.557129 275.408 31.9834 306.875 70.7498 306.875Z" fill="white"/>
<path d="M98.5985 265.769C100.337 264.521 101.987 263.127 103.533 261.596C103.85 261.846 104.18 262.086 104.532 262.301C109.269 265.192 115.45 263.692 118.337 258.949C121.224 254.207 119.725 248.019 114.99 245.127C114.638 244.912 114.274 244.727 113.907 244.56C115.15 240.592 115.772 236.516 115.792 232.466C116.192 232.418 116.594 232.353 116.996 232.256C122.387 230.947 125.699 225.511 124.39 220.112C123.084 214.713 117.652 211.399 112.261 212.707C111.859 212.805 111.474 212.932 111.095 213.074C109.224 209.483 106.807 206.144 103.885 203.188C104.135 202.871 104.375 202.541 104.589 202.189C107.476 197.446 105.978 191.258 101.241 188.366C96.5033 185.475 90.3226 186.975 87.4358 191.718C87.221 192.072 87.0362 192.434 86.8714 192.802C82.9083 191.555 78.8378 190.934 74.7922 190.914C74.7448 190.512 74.6823 190.112 74.5849 189.707C73.2789 184.308 67.8474 180.994 62.4558 182.303C57.0643 183.612 53.7529 189.048 55.0615 194.447C55.1589 194.849 55.2862 195.236 55.4261 195.613C53.4283 196.657 51.5104 197.869 49.6924 199.245L52.9962 212.028L59.9036 212.792L63.3049 217.302C69.2333 212.825 77.5292 212.16 84.2543 216.268C93.0496 221.638 95.834 233.132 90.4699 241.938C89.2088 244.011 87.6081 245.749 85.7826 247.127L88.0801 258.03L93.8063 258.799L98.5985 265.769Z" fill="white"/>
<path d="M98.5985 266.318C98.566 266.318 98.5361 266.315 98.5036 266.31C98.3587 266.285 98.2289 266.203 98.144 266.08L93.4891 259.31L88.0052 258.576C87.7754 258.546 87.5881 258.371 87.5407 258.144L85.2432 247.241C85.1983 247.034 85.2807 246.817 85.4505 246.689C87.271 245.313 88.8018 243.62 89.998 241.652C95.1947 233.117 92.4877 221.941 83.9646 216.737C77.5816 212.841 69.6004 213.233 63.632 217.741C63.5147 217.828 63.3673 217.868 63.225 217.846C63.0801 217.826 62.9503 217.748 62.8629 217.631L59.6065 213.308L52.9363 212.572C52.7091 212.547 52.5218 212.384 52.4643 212.162L49.1605 199.378C49.1055 199.164 49.1829 198.936 49.3603 198.802C51.0609 197.515 52.8714 196.354 54.7493 195.348C54.6594 195.076 54.5845 194.821 54.5271 194.574C53.1511 188.89 56.6497 183.144 62.326 181.765C65.0779 181.098 67.9223 181.543 70.3396 183.016C72.757 184.492 74.4526 186.82 75.1194 189.574C75.1793 189.824 75.2317 190.081 75.2742 190.363C79.1075 190.428 82.9058 191.02 86.5817 192.131C86.7091 191.877 86.8364 191.644 86.9688 191.427C88.4422 189.007 90.7696 187.307 93.5216 186.64C96.2686 185.971 99.1154 186.418 101.53 187.891C106.517 190.935 108.101 197.476 105.061 202.47C104.927 202.69 104.782 202.907 104.612 203.139C107.281 205.904 109.549 209.013 111.359 212.394C111.627 212.304 111.881 212.232 112.131 212.172C114.881 211.505 117.727 211.95 120.145 213.423C122.562 214.899 124.258 217.226 124.924 219.981C126.3 225.665 122.802 231.411 117.126 232.789C116.876 232.849 116.616 232.902 116.336 232.944C116.271 236.783 115.68 240.586 114.571 244.267C114.826 244.394 115.055 244.522 115.275 244.656C120.262 247.701 121.845 254.241 118.806 259.233C117.333 261.653 115.005 263.353 112.253 264.02C109.504 264.689 106.66 264.242 104.245 262.767C104.028 262.634 103.808 262.487 103.578 262.32C102.122 263.728 100.556 265.037 98.9206 266.215C98.8257 266.283 98.7134 266.318 98.5985 266.318ZM88.5396 257.535L93.8787 258.252C94.0335 258.272 94.1709 258.356 94.2583 258.486L98.7308 264.992C100.287 263.84 101.77 262.569 103.146 261.206C103.346 261.011 103.658 260.994 103.875 261.163C104.212 261.431 104.522 261.648 104.819 261.83C106.984 263.151 109.534 263.551 111.996 262.954C114.464 262.357 116.549 260.831 117.87 258.664C120.594 254.186 119.176 248.325 114.706 245.598C114.406 245.416 114.081 245.246 113.682 245.063C113.43 244.949 113.302 244.664 113.385 244.399C114.598 240.531 115.225 236.515 115.245 232.465C115.248 232.188 115.455 231.953 115.732 231.92C116.154 231.87 116.526 231.805 116.871 231.723C121.958 230.487 125.094 225.338 123.861 220.243C123.264 217.776 121.74 215.688 119.575 214.365C117.41 213.043 114.861 212.644 112.396 213.243C112.054 213.326 111.694 213.441 111.294 213.59C111.035 213.688 110.743 213.575 110.613 213.328C108.742 209.74 106.35 206.458 103.501 203.574C103.306 203.377 103.288 203.064 103.458 202.847C103.73 202.5 103.943 202.2 104.125 201.901C106.849 197.426 105.431 191.562 100.961 188.832C98.7983 187.511 96.2486 187.112 93.7838 187.711C91.319 188.308 89.2338 189.834 87.9128 192.002C87.7305 192.299 87.5557 192.636 87.3783 193.028C87.2635 193.28 86.9763 193.407 86.7116 193.325C82.8483 192.109 78.8378 191.485 74.7947 191.462C74.5175 191.46 74.2828 191.252 74.2503 190.978C74.1979 190.541 74.1354 190.178 74.053 189.839C73.4562 187.372 71.9329 185.284 69.7678 183.96C67.6026 182.639 65.053 182.24 62.5882 182.839C57.4988 184.075 54.3647 189.225 55.5984 194.319C55.6808 194.661 55.7907 195.013 55.9455 195.423C56.0429 195.682 55.9305 195.975 55.6858 196.105C53.8178 197.078 52.0173 198.21 50.3217 199.466L53.4333 211.52L59.9636 212.242C60.1134 212.259 60.2507 212.337 60.3431 212.457L63.4148 216.535C69.6953 212.062 77.9263 211.757 84.539 215.795C93.579 221.314 96.4509 233.169 90.9394 242.222C89.7308 244.207 88.2024 245.93 86.3919 247.351L88.5396 257.535Z" fill="black"/>
<path d="M77.6994 253.546C71.7709 258.024 63.4751 258.688 56.75 254.58C47.9547 249.211 45.1702 237.716 50.5343 228.911C51.7954 226.838 53.3962 225.1 55.2217 223.721L52.0676 219.536L44.8106 218.522L41.6117 205.666C40.1633 206.76 38.7798 207.959 37.4712 209.255C37.1541 209.005 36.8244 208.765 36.4723 208.55C31.735 205.659 25.5544 207.159 22.6675 211.902C19.7807 216.644 21.2791 222.832 26.0163 225.724C26.3685 225.939 26.7331 226.124 27.1001 226.291C25.8565 230.259 25.2347 234.335 25.2147 238.385C24.8152 238.433 24.4131 238.498 24.0111 238.595C18.6195 239.904 15.3081 245.34 16.6167 250.739C17.9253 256.138 23.3543 259.452 28.7458 258.144C29.1479 258.046 29.5325 257.919 29.9121 257.776C31.785 261.368 34.1998 264.706 37.1216 267.663C36.8719 267.98 36.6321 268.31 36.4174 268.662C33.5306 273.404 35.0289 279.593 39.7637 282.484C44.4985 285.376 50.6817 283.875 53.5685 279.133C53.7832 278.779 53.968 278.416 54.1329 278.049C58.096 279.295 62.1665 279.917 66.212 279.937C66.2595 280.339 66.3219 280.739 66.4193 281.143C67.7254 286.543 73.1569 289.856 78.5484 288.548C83.94 287.239 87.2513 281.803 85.9428 276.404C85.8454 276.002 85.718 275.614 85.5782 275.237C87.2863 274.346 88.937 273.329 90.5177 272.193L85.5482 264.966L80.4613 264.929L77.6994 253.546Z" fill="white"/>
<path d="M76.1609 289.382C74.238 289.382 72.3476 288.855 70.6645 287.826C68.2471 286.35 66.5515 284.023 65.8847 281.268C65.8248 281.021 65.7724 280.759 65.7299 280.479C61.8966 280.417 58.0983 279.822 54.4224 278.711C54.295 278.966 54.1677 279.195 54.0353 279.415C52.5619 281.835 50.2345 283.536 47.4825 284.202C44.7331 284.872 41.8887 284.425 39.4739 282.949C34.4869 279.905 32.9011 273.364 35.9427 268.37C36.0776 268.15 36.2224 267.93 36.3923 267.7C33.7227 264.938 31.4577 261.829 29.6447 258.446C29.375 258.535 29.1203 258.61 28.873 258.67C26.1236 259.337 23.2767 258.893 20.8594 257.419C18.442 255.943 16.7464 253.616 16.0796 250.861C14.7037 245.178 18.2023 239.431 23.8785 238.053C24.1258 237.993 24.3855 237.941 24.6677 237.898C24.7326 234.06 25.3245 230.256 26.4332 226.575C26.1785 226.448 25.9488 226.321 25.729 226.186C20.742 223.142 19.1563 216.601 22.1979 211.607C23.6713 209.187 25.9987 207.486 28.7507 206.82C31.4976 206.153 34.3445 206.597 36.7593 208.073C36.9766 208.206 37.1964 208.353 37.4261 208.523C38.6423 207.346 39.9358 206.238 41.2794 205.221C41.4267 205.109 41.6215 205.079 41.7938 205.141C41.9686 205.204 42.101 205.349 42.1434 205.526L45.2525 218.022L52.1424 218.986C52.2872 219.006 52.4171 219.084 52.5045 219.201L55.6585 223.386C55.8408 223.629 55.7934 223.973 55.5511 224.156C53.7306 225.532 52.1998 227.225 51.0036 229.193C45.8069 237.728 48.5139 248.904 57.037 254.108C63.42 258.004 71.4012 257.609 77.3696 253.104C77.5169 252.992 77.7117 252.962 77.8865 253.024C78.0613 253.086 78.1937 253.231 78.2361 253.414L80.8957 264.374L85.5531 264.409C85.7329 264.412 85.9002 264.499 86.0026 264.649L90.9721 271.876C91.1419 272.123 91.082 272.46 90.8397 272.635C89.3789 273.684 87.8405 274.645 86.2548 275.497C86.3447 275.767 86.4171 276.021 86.4771 276.271C87.853 281.955 84.3544 287.701 78.6781 289.08C77.8416 289.282 76.9975 289.382 76.1609 289.382ZM54.1302 277.497C54.1851 277.497 54.2401 277.505 54.295 277.522C58.1608 278.738 62.1688 279.365 66.2119 279.385C66.4891 279.388 66.7238 279.595 66.7563 279.87C66.8062 280.299 66.8712 280.671 66.9536 281.008C67.5504 283.476 69.0737 285.563 71.2388 286.887C73.404 288.208 75.9536 288.608 78.4184 288.008C83.5078 286.772 86.6419 281.623 85.4082 276.528C85.3258 276.186 85.2109 275.827 85.0611 275.425C84.9637 275.165 85.0761 274.873 85.3208 274.743C86.8491 273.946 88.3375 273.042 89.7559 272.051L85.2584 265.505L80.4562 265.468C80.204 265.465 79.9867 265.293 79.9268 265.048L77.3596 254.472C71.1115 258.79 62.9979 259.04 56.4651 255.052C47.4251 249.533 44.5533 237.678 50.0647 228.626C51.2384 226.698 52.7143 225.017 54.4573 223.621L51.7653 220.05L44.7331 219.066C44.5108 219.036 44.3285 218.871 44.2761 218.654L41.2819 206.615C40.0882 207.556 38.9394 208.573 37.8581 209.644C37.6609 209.841 37.3487 209.859 37.1289 209.684C36.7918 209.417 36.4822 209.199 36.185 209.017C34.0199 207.696 31.4702 207.297 29.0079 207.893C26.5431 208.49 24.4579 210.016 23.1369 212.184C20.4124 216.659 21.8308 222.522 26.3009 225.252C26.598 225.434 26.9252 225.604 27.3247 225.786C27.577 225.901 27.7043 226.186 27.6219 226.451C26.4083 230.319 25.7814 234.334 25.7615 238.385C25.759 238.662 25.5517 238.897 25.277 238.929C24.8425 238.979 24.4804 239.044 24.1383 239.127C19.0489 240.363 15.9148 245.512 17.1485 250.607C17.7453 253.074 19.2686 255.162 21.4337 256.483C23.5989 257.804 26.151 258.203 28.6133 257.604C28.9555 257.522 29.3051 257.409 29.7146 257.257C29.9743 257.159 30.2665 257.272 30.3964 257.519C32.2668 261.11 34.6592 264.392 37.5085 267.273C37.7033 267.471 37.7208 267.783 37.5485 268C37.2763 268.345 37.064 268.644 36.8817 268.944C34.1547 273.422 35.5757 279.283 40.0457 282.012C42.2083 283.333 44.758 283.73 47.2228 283.136C49.6901 282.539 51.7753 281.013 53.0963 278.846C53.2786 278.546 53.4485 278.219 53.6307 277.819C53.7206 277.62 53.9204 277.497 54.1302 277.497Z" fill="black"/>
<path d="M70.0278 307.429C70.0253 307.429 70.0253 307.429 70.0228 307.429C67.7803 307.409 65.5178 307.28 63.2977 307.047C62.9956 307.015 62.7758 306.745 62.8083 306.443C62.8407 306.141 63.1129 305.924 63.4126 305.954C65.5977 306.183 67.8252 306.311 70.0303 306.331C70.335 306.333 70.5772 306.583 70.5747 306.885C70.5772 307.187 70.33 307.429 70.0278 307.429ZM76.708 307.172C76.4258 307.172 76.186 306.955 76.1611 306.67C76.1336 306.368 76.3583 306.101 76.6605 306.076C77.7393 305.984 78.8356 305.864 79.9169 305.719C81.0282 305.571 82.1445 305.397 83.2333 305.197C83.5379 305.144 83.8176 305.342 83.8726 305.639C83.9275 305.939 83.7277 306.223 83.4305 306.278C82.3243 306.478 81.1905 306.658 80.0618 306.808C78.9605 306.955 77.8492 307.075 76.7529 307.17C76.7379 307.172 76.7229 307.172 76.708 307.172ZM56.7524 306.031C56.715 306.031 56.68 306.026 56.6426 306.018C54.4525 305.571 52.2574 305.015 50.1123 304.358C49.8226 304.27 49.6578 303.961 49.7477 303.671C49.8351 303.381 50.1447 303.217 50.4344 303.306C52.5446 303.951 54.7072 304.5 56.8623 304.94C57.1595 305 57.3518 305.289 57.2919 305.589C57.2369 305.854 57.0072 306.031 56.7524 306.031ZM89.8435 304.785C89.6037 304.785 89.384 304.628 89.3141 304.385C89.2317 304.093 89.4015 303.788 89.6936 303.706C91.8163 303.109 93.9315 302.402 95.9817 301.606C96.2664 301.498 96.5835 301.636 96.6934 301.92C96.8033 302.205 96.6635 302.522 96.3788 302.632C94.2961 303.441 92.1484 304.158 89.9908 304.765C89.9434 304.777 89.8934 304.785 89.8435 304.785ZM43.984 302.125C43.9141 302.125 43.8417 302.113 43.7743 302.083C41.7065 301.226 39.6563 300.26 37.681 299.213C37.4113 299.071 37.3114 298.739 37.4537 298.469C37.5961 298.2 37.9282 298.1 38.1979 298.242C40.1433 299.273 42.161 300.225 44.1963 301.069C44.476 301.184 44.6108 301.506 44.4935 301.788C44.4036 301.998 44.1988 302.125 43.984 302.125ZM102.29 299.953C102.087 299.953 101.895 299.843 101.798 299.65C101.66 299.378 101.77 299.049 102.043 298.911C104.008 297.922 105.951 296.824 107.814 295.65C108.071 295.488 108.411 295.565 108.573 295.822C108.735 296.079 108.658 296.419 108.401 296.581C106.508 297.775 104.535 298.891 102.537 299.895C102.457 299.933 102.372 299.953 102.29 299.953ZM32.187 295.87C32.0821 295.87 31.9773 295.84 31.8849 295.78C30.0144 294.549 28.1839 293.213 26.4434 291.812C26.2061 291.622 26.1687 291.275 26.3584 291.037C26.5507 290.803 26.8954 290.763 27.1326 290.952C28.8457 292.331 30.6487 293.647 32.4892 294.861C32.7439 295.028 32.8138 295.368 32.6465 295.622C32.5416 295.782 32.3643 295.87 32.187 295.87ZM113.585 292.835C113.42 292.835 113.258 292.763 113.15 292.621C112.965 292.381 113.008 292.034 113.25 291.849C114.991 290.503 116.689 289.057 118.297 287.551C118.519 287.344 118.866 287.354 119.074 287.576C119.281 287.798 119.271 288.146 119.049 288.353C117.416 289.884 115.69 291.352 113.922 292.718C113.82 292.798 113.702 292.835 113.585 292.835ZM21.7835 287.501C21.6436 287.501 21.5063 287.449 21.3989 287.346C19.7932 285.783 18.2474 284.127 16.8015 282.424C16.6042 282.192 16.6342 281.845 16.8639 281.648C17.0962 281.45 17.4433 281.48 17.6406 281.71C19.064 283.388 20.5873 285.016 22.1656 286.555C22.3828 286.767 22.3878 287.114 22.1756 287.331C22.0707 287.446 21.9258 287.501 21.7835 287.501ZM123.327 283.708C123.197 283.708 123.067 283.663 122.962 283.571C122.735 283.368 122.712 283.021 122.915 282.794C124.373 281.143 125.766 279.403 127.062 277.62C127.24 277.372 127.584 277.32 127.832 277.497C128.079 277.674 128.131 278.019 127.954 278.266C126.638 280.077 125.219 281.845 123.741 283.521C123.629 283.645 123.479 283.708 123.327 283.708ZM13.1455 277.325C12.9707 277.325 12.8009 277.242 12.6935 277.09C11.4124 275.252 10.2087 273.334 9.11246 271.389C8.96262 271.124 9.05752 270.79 9.32223 270.64C9.58693 270.49 9.92157 270.585 10.0714 270.849C11.1502 272.765 12.3364 274.653 13.5975 276.463C13.7698 276.713 13.7099 277.055 13.4602 277.23C13.3628 277.292 13.2529 277.325 13.1455 277.325ZM131.178 272.91C131.083 272.91 130.986 272.885 130.898 272.832C130.636 272.677 130.551 272.34 130.706 272.078C131.827 270.18 132.871 268.207 133.808 266.217C133.937 265.942 134.265 265.822 134.539 265.952C134.814 266.082 134.931 266.409 134.804 266.684C133.852 268.707 132.794 270.71 131.652 272.638C131.548 272.812 131.365 272.91 131.178 272.91ZM6.59273 265.695C6.38296 265.695 6.18069 265.573 6.09079 265.368C5.18429 263.325 4.36519 261.213 3.65847 259.087C3.56107 258.798 3.7184 258.488 4.00559 258.391C4.29277 258.296 4.60492 258.451 4.70232 258.738C5.39905 260.828 6.20566 262.908 7.09718 264.921C7.21954 265.198 7.09468 265.523 6.81749 265.648C6.74257 265.68 6.66515 265.695 6.59273 265.695ZM136.854 260.823C136.792 260.823 136.729 260.813 136.669 260.79C136.382 260.688 136.235 260.373 136.337 260.086C137.081 258.011 137.733 255.876 138.273 253.743C138.348 253.449 138.645 253.271 138.942 253.346C139.237 253.421 139.414 253.721 139.339 254.015C138.79 256.181 138.128 258.351 137.371 260.458C137.291 260.683 137.081 260.823 136.854 260.823ZM2.36989 253.029C2.12016 253.029 1.89291 252.857 1.83548 252.602C1.33353 250.429 0.928976 248.199 0.634301 245.977C0.594345 245.677 0.806611 245.4 1.10628 245.36C1.40595 245.322 1.68314 245.532 1.7231 245.832C2.01528 248.022 2.41484 250.217 2.9068 252.357C2.97422 252.654 2.78943 252.949 2.49475 253.016C2.4523 253.026 2.40984 253.029 2.36989 253.029ZM140.138 247.88C140.111 247.88 140.083 247.877 140.053 247.872C139.753 247.827 139.546 247.545 139.594 247.245C139.928 245.07 140.163 242.853 140.288 240.65C140.305 240.345 140.568 240.123 140.867 240.133C141.172 240.151 141.402 240.41 141.384 240.712C141.257 242.948 141.02 245.203 140.68 247.413C140.64 247.685 140.405 247.88 140.138 247.88ZM0.601837 239.796C0.307161 239.796 0.0649284 239.564 0.0524422 239.267C0.0174807 238.348 0 237.416 0 236.502C0 235.181 0.0374587 233.845 0.112376 232.529C0.129857 232.224 0.392068 231.994 0.691738 232.012C0.993905 232.029 1.22615 232.289 1.21117 232.591C1.13874 233.885 1.10129 235.201 1.10129 236.502C1.10129 237.401 1.11877 238.318 1.15373 239.224C1.16621 239.529 0.928976 239.783 0.626809 239.796C0.61682 239.796 0.609328 239.796 0.601837 239.796ZM140.9 234.552C140.605 234.552 140.363 234.319 140.35 234.022C140.265 231.825 140.076 229.602 139.786 227.414L139.771 227.29C139.731 226.987 139.943 226.713 140.245 226.673C140.545 226.633 140.822 226.845 140.862 227.147L140.877 227.27C141.172 229.492 141.364 231.75 141.449 233.98C141.462 234.284 141.224 234.539 140.92 234.549C140.915 234.552 140.907 234.552 140.9 234.552ZM1.35601 226.466C1.32854 226.466 1.30107 226.463 1.2711 226.458C0.971429 226.413 0.764158 226.131 0.811605 225.831C1.15123 223.619 1.60074 221.396 2.14763 219.228C2.22255 218.934 2.52222 218.759 2.8169 218.829C3.11157 218.904 3.28888 219.203 3.21645 219.498C2.67705 221.633 2.23504 223.818 1.90041 225.999C1.85546 226.271 1.62321 226.466 1.35601 226.466ZM139.117 221.194C138.867 221.194 138.64 221.021 138.582 220.767C138.085 218.617 137.478 216.471 136.782 214.386C136.684 214.099 136.842 213.787 137.129 213.69C137.419 213.592 137.728 213.749 137.826 214.037C138.532 216.154 139.149 218.334 139.654 220.517C139.721 220.814 139.539 221.109 139.242 221.176C139.199 221.189 139.159 221.194 139.117 221.194ZM4.6274 213.52C4.56497 213.52 4.50254 213.51 4.4426 213.487C4.15542 213.385 4.00808 213.07 4.11047 212.785C4.86214 210.678 5.72619 208.583 6.67514 206.557C6.805 206.283 7.13214 206.163 7.40684 206.293C7.68153 206.422 7.8014 206.75 7.67154 207.024C6.73757 209.02 5.88601 211.082 5.14683 213.155C5.06442 213.38 4.85215 213.52 4.6274 213.52ZM134.884 208.533C134.672 208.533 134.472 208.41 134.379 208.206C133.485 206.193 132.481 204.2 131.4 202.282C131.25 202.017 131.345 201.68 131.61 201.533C131.875 201.385 132.209 201.478 132.359 201.743C133.458 203.69 134.477 205.713 135.386 207.758C135.508 208.036 135.383 208.36 135.106 208.485C135.036 208.518 134.959 208.533 134.884 208.533ZM10.2912 201.428C10.1963 201.428 10.0989 201.403 10.0115 201.351C9.74926 201.196 9.66185 200.859 9.81668 200.596C10.9554 198.668 12.1966 196.773 13.5101 194.965C13.6874 194.72 14.032 194.663 14.2793 194.843C14.5265 195.02 14.5789 195.365 14.4016 195.612C13.1081 197.395 11.8844 199.26 10.7656 201.158C10.6632 201.331 10.4809 201.428 10.2912 201.428ZM128.321 196.908C128.149 196.908 127.976 196.825 127.869 196.673C126.61 194.87 125.247 193.105 123.819 191.424C123.621 191.192 123.649 190.845 123.881 190.65C124.111 190.452 124.458 190.48 124.655 190.712C126.106 192.418 127.489 194.211 128.771 196.044C128.943 196.294 128.883 196.636 128.633 196.81C128.541 196.875 128.431 196.908 128.321 196.908ZM18.1325 190.622C18.0027 190.622 17.8728 190.577 17.7679 190.485C17.5407 190.285 17.5182 189.935 17.718 189.708C19.1963 188.03 20.7746 186.402 22.4053 184.871C22.6276 184.664 22.9747 184.674 23.1819 184.896C23.3892 185.118 23.3792 185.465 23.157 185.673C21.5512 187.179 19.998 188.782 18.5421 190.435C18.4372 190.56 18.2848 190.622 18.1325 190.622ZM119.673 186.739C119.536 186.739 119.396 186.687 119.289 186.584C117.71 185.051 116.037 183.572 114.319 182.191C114.082 182.002 114.044 181.655 114.234 181.417C114.424 181.18 114.771 181.143 115.008 181.332C116.754 182.733 118.452 184.234 120.055 185.793C120.272 186.005 120.277 186.352 120.065 186.569C119.96 186.684 119.818 186.739 119.673 186.739ZM27.8693 181.485C27.7045 181.485 27.5421 181.412 27.4348 181.272C27.25 181.033 27.2924 180.686 27.5322 180.501C29.3027 179.13 31.1582 177.831 33.0486 176.638C33.3058 176.475 33.6454 176.553 33.8077 176.81C33.9701 177.067 33.8926 177.407 33.6354 177.569C31.775 178.743 29.947 180.021 28.2064 181.372C28.104 181.447 27.9867 181.485 27.8693 181.485ZM109.262 178.381C109.157 178.381 109.055 178.351 108.96 178.291C107.119 177.08 105.199 175.943 103.254 174.914C102.984 174.772 102.882 174.44 103.024 174.17C103.166 173.901 103.498 173.798 103.768 173.941C105.746 174.987 107.694 176.141 109.564 177.372C109.819 177.539 109.889 177.879 109.722 178.133C109.617 178.293 109.439 178.381 109.262 178.381ZM39.1568 174.36C38.9546 174.36 38.7623 174.25 38.6649 174.058C38.5275 173.786 38.6374 173.456 38.9071 173.319C40.9074 172.31 42.9776 171.388 45.0603 170.577C45.3425 170.464 45.6622 170.607 45.772 170.889C45.8819 171.171 45.7421 171.491 45.4599 171.601C43.4097 172.4 41.3719 173.306 39.4041 174.3C39.3242 174.34 39.2417 174.36 39.1568 174.36ZM97.4601 172.132C97.3902 172.132 97.3177 172.12 97.2503 172.09C95.2151 171.248 93.1149 170.497 91.0072 169.855C90.7175 169.768 90.5527 169.458 90.6426 169.168C90.73 168.879 91.0372 168.714 91.3293 168.804C93.4695 169.455 95.6046 170.22 97.6698 171.074C97.9495 171.189 98.0844 171.511 97.967 171.793C97.8796 172.005 97.6773 172.132 97.4601 172.132ZM51.5956 169.515C51.3559 169.515 51.1361 169.358 51.0662 169.116C50.9838 168.824 51.1536 168.519 51.4458 168.437C53.5909 167.83 55.7985 167.318 58.0061 166.916C58.3057 166.858 58.5904 167.058 58.6454 167.358C58.7003 167.657 58.503 167.942 58.2034 167.997C56.0307 168.394 53.8581 168.899 51.7455 169.495C51.6955 169.51 51.6456 169.515 51.5956 169.515ZM84.6892 168.239C84.6542 168.239 84.6167 168.237 84.5793 168.229C82.4192 167.79 80.2141 167.453 78.024 167.225C77.7218 167.195 77.5021 166.923 77.5345 166.621C77.5645 166.319 77.8317 166.092 78.1389 166.132C80.3639 166.364 82.604 166.706 84.799 167.15C85.0962 167.21 85.2885 167.5 85.2286 167.8C85.1736 168.059 84.9464 168.239 84.6892 168.239ZM64.7312 167.118C64.449 167.118 64.2092 166.903 64.1843 166.616C64.1568 166.314 64.3815 166.047 64.6837 166.019C66.7265 165.842 68.7967 165.752 70.8394 165.752L71.4163 165.754C71.721 165.757 71.9632 166.004 71.9607 166.309C71.9582 166.611 71.7135 166.853 71.4113 166.853C71.4088 166.853 71.4088 166.853 71.4063 166.853L70.8394 166.851C68.8291 166.851 66.7889 166.938 64.7786 167.115C64.7611 167.115 64.7461 167.118 64.7312 167.118Z" fill="#19297C"/>
</g>
<defs>
<clipPath id="clip0_22093_83479">
<rect width="685" height="457" fill="white"/>
</clipPath>
</defs>
</svg>
