<svg width="17" height="17" viewBox="0 0 17 17" fill="none" xmlns="http://www.w3.org/2000/svg">
<g clipPath="url(#clip0_33893_2445)">
<path d="M11.3288 0.5C11.3661 0.5 11.4033 0.5 11.4426 0.5C11.534 1.62835 11.1033 2.47146 10.5799 3.082C10.0663 3.68834 9.36298 4.2764 8.22549 4.18717C8.14961 3.07498 8.581 2.29441 9.10373 1.68526C9.58851 1.11757 10.4773 0.612414 11.3288 0.5Z" fill="black"/>
<path d="M14.7722 12.2445C14.7722 12.2557 14.7722 12.2655 14.7722 12.2761C14.4526 13.2442 13.9966 14.074 13.4401 14.844C12.9322 15.5431 12.3097 16.4839 11.1982 16.4839C10.2378 16.4839 9.59981 15.8663 8.61548 15.8494C7.57425 15.8326 7.00164 16.3658 6.04964 16.5C5.94074 16.5 5.83183 16.5 5.72504 16.5C5.02597 16.3989 4.46179 15.8452 4.05078 15.3464C2.83882 13.8724 1.90227 11.9683 1.72803 9.53177C1.72803 9.29289 1.72803 9.05472 1.72803 8.81584C1.8018 7.07202 2.64912 5.6542 3.77536 4.96707C4.36975 4.60172 5.18686 4.29048 6.09671 4.42959C6.48664 4.49001 6.88501 4.6235 7.2342 4.75559C7.56511 4.88276 7.97894 5.10829 8.37098 5.09634C8.63656 5.08862 8.90073 4.95021 9.16842 4.85255C9.9525 4.56941 10.7211 4.24481 11.7343 4.39727C12.9518 4.58135 13.816 5.12234 14.35 5.95701C13.32 6.61253 12.5057 7.60036 12.6448 9.28727C12.7685 10.8196 13.6593 11.7161 14.7722 12.2445Z" fill="black"/>
</g>
<defs>
<clipPath id="clip0_33893_2445">
<rect width="16" height="16" fill="white" transform="translate(0.25 0.5)"/>
</clipPath>
</defs>
</svg>
