<svg width="17" height="17" viewBox="0 0 17 17" fill="none" xmlns="http://www.w3.org/2000/svg">
<g clipPath="url(#clip0_33893_525)">
<path d="M4.29594 10.169L3.739 12.2481L1.70341 12.2912C1.09506 11.1628 0.75 9.87186 0.75 8.49999C0.75 7.17339 1.07263 5.92239 1.6445 4.82086H1.64494L3.45719 5.15311L4.25106 6.95449C4.08491 7.43889 3.99434 7.95889 3.99434 8.49999C3.99441 9.08724 4.10078 9.64989 4.29594 10.169Z" fill="#FBBB00"/>
<path d="M16.6101 7.00549C16.702 7.48943 16.7499 7.98921 16.7499 8.49999C16.7499 9.07274 16.6897 9.63143 16.575 10.1703C16.1855 12.0042 15.1679 13.6055 13.7583 14.7387L13.7578 14.7382L11.4752 14.6218L11.1522 12.6051C12.0875 12.0565 12.8185 11.198 13.2036 10.1703H8.92578V7.00549H13.266H16.6101Z" fill="#518EF8"/>
<path d="M13.7581 14.7382L13.7586 14.7387C12.3876 15.8406 10.646 16.5 8.75021 16.5C5.70361 16.5 3.05483 14.7971 1.70361 12.2912L4.29614 10.169C4.97174 11.9721 6.71108 13.2556 8.75021 13.2556C9.62668 13.2556 10.4478 13.0187 11.1524 12.605L13.7581 14.7382Z" fill="#28B446"/>
<path d="M13.8564 2.34175L11.2648 4.4635C10.5355 4.00769 9.67353 3.74437 8.75003 3.74437C6.66475 3.74437 4.89288 5.08678 4.25113 6.9545L1.64497 4.82088H1.64453C2.97597 2.25384 5.65816 0.5 8.75003 0.5C10.6911 0.5 12.4709 1.19144 13.8564 2.34175Z" fill="#F14336"/>
</g>
<defs>
<clipPath id="clip0_33893_525">
<rect width="16" height="16" fill="white" transform="translate(0.75 0.5)"/>
</clipPath>
</defs>
</svg>
