<svg viewBox="0 0 158 22" xmlns="http://www.w3.org/2000/svg"><path d="M30.3 4.7c2.2 0 4.5 1.1 5.1 3.7H33c-.6-1.1-1.5-1.5-2.7-1.5-2.1 0-3.3 1.6-3.3 3.6 0 2.2 1.3 3.6 3.3 3.6 1.5 0 2.7-.5 3.2-2.2h-3.1v-2h5.3c.1 1.1 0 2.2-.3 3.2-.9 2.3-2.9 3.3-5 3.3-3 0-5.8-2.1-5.8-5.8s2.8-5.9 5.7-5.9zm17.4 11.2v.3h-2.6l-2.3-3.8h-2v3.8h-2.4V4.8h4.8c2.6 0 4 1.9 4 3.9 0 1.4-.8 2.7-2 3.4zm-4.5-5.5c.5 0 .9-.2 1.2-.5s.5-.8.4-1.3c0-.5-.1-.9-.5-1.2-.3-.3-.8-.5-1.2-.5h-2.4v3.5zm9.7 3.9l-.9 1.9h-2.5v-.3l5.2-11.2h1.1l5.1 11.2v.3h-2.5l-.9-1.9zm.7-2h3.1l-1.6-3.8zm12.1-1l1.2-2.8 1.5-3.6H71v.3l-4.8 11h-1l-4.8-11v-.3h2.5l1.5 3.6zm7.6 4.9V4.8h2.4v11.4zM78 7V4.9h9.4V7h-3.5v9.2h-2.3V7zm16 2.4l1.2-2.2 1.3-2.3H99v.3l-3.8 6.5v4.5h-2.4v-4.5l-3.9-6.5v-.3h2.6l1.4 2.4 1 2.2z" fill="#fff"/><path d="M18.6 14.2c0 1-.6 2-1.4 2.6L11 20.5c-1 .5-2 .5-3 0l-6.3-3.6C.8 16.3.3 15.4.2 14.3V7c0-1 .6-2 1.4-2.6L7.8.7c.9-.5 2-.5 2.9 0L17 4.3c.9.6 1.4 1.5 1.5 2.6z" fill="#f15a2b"/><path d="M7.7 8.9H16V6.5H7.7c-1.1 0-2.2.4-2.9 1.2C3 9.7 3 14.6 3 14.6h12.9v-4.5h-2.3v2.1H5.4c.1-.8.4-2.2 1.1-2.9.3-.3.7-.5 1.2-.4z" fill="#fff"/><path d="M106.1 6.1v4.1h4.9v1h-4.9v4.9h-1v-11h6.1v1zm6.8 4.5c0-2.3 1.3-4.5 3.4-5.4s4.5-.4 6.2 1.2c1.6 1.6 2.1 4.1 1.2 6.3s-2.9 3.6-5.2 3.6c-1.5 0-2.9-.6-4-1.6s-1.6-2.6-1.6-4.1zm10.2 0c0-1.9-1.1-3.6-2.8-4.3s-3.7-.3-5 1-1.7 3.3-1 5.1 2.4 2.9 4.2 2.9c1.2 0 2.4-.5 3.2-1.3s1.4-2.2 1.4-3.4zm7.6 1.1h-3.1v4.4h-1.1v-11h4.4c1.6 0 3 1.2 3.2 2.8s-.8 3.2-2.3 3.7l2.7 4.6h-1.2zm-3.1-1h3.3c1.1-.1 2-1.1 2-2.3s-.9-2.1-2-2.3h-3.3zm18.9 5.4h-1.1V6.8l-3.8 6.4h-.2l-3.8-6.4v9.3h-1.1v-11h1.3l3.7 6.1 3.6-6.1h1.4zm2.2-2.5l.9-.6c.4 1.3 1.4 2.2 3.1 2.2s2.6-.8 2.6-2c0-1.3-1.1-1.7-2.7-2.2-1.8-.6-3.5-1.1-3.5-3.1 0-1.9 1.5-3 3.3-3 1.6 0 3 .9 3.6 2.4l-.9.5c-.4-1.1-1.5-1.9-2.7-1.8-1.3 0-2.3.7-2.3 1.9s.9 1.6 2.4 2.1c2 .7 3.8 1.2 3.8 3.3 0 1.9-1.5 3.1-3.7 3.1-1.9-.1-3.4-1.1-3.9-2.8z" fill="#e6e6e6"/></svg>