<svg width="47" height="40" viewBox="0 0 47 40" fill="none" xmlns="http://www.w3.org/2000/svg">
<path d="M44.403 26.7864H46.9479L43.6199 23.3279C38.8563 18.3686 32.2656 15.5626 25.3486 15.5626H24.5656H22.869H22.0206C15.1689 15.5626 8.57821 18.3686 3.74937 23.3279L0.421387 26.7864H2.96631C9.81804 26.7864 16.4088 23.9805 21.2376 19.0211L23.7173 16.4762C22.2817 25.2203 9.81804 39.0543 9.81804 39.0543H23.7825H37.747C37.747 39.0543 25.4139 25.4161 23.8478 16.6719L26.1317 19.0864C30.8953 23.9805 37.486 26.7864 44.403 26.7864Z" fill="#718096"/>
<path d="M21.6291 10.4728L23.652 8.38462L25.6749 10.4728C29.5902 14.5838 35.0716 16.8677 40.7487 16.8677H42.8368L40.0961 13.9965C36.1809 9.88547 30.6995 7.60156 25.0223 7.60156H24.3698H22.9342H22.2817C16.6045 7.60156 11.1884 9.88547 7.20785 13.9965L4.46716 16.933H6.55531C12.2325 16.933 17.7138 14.5838 21.6291 10.4728Z" fill="#718096"/>
<path d="M22.0206 3.29478L23.652 1.59816L25.2834 3.29478C28.4808 6.62276 32.9181 8.51515 37.5512 8.51515H39.2478L37.0292 6.16598C33.8317 2.838 29.3944 0.945618 24.7613 0.945618H24.2393H23.0647H22.5427C17.9096 0.945618 13.4723 2.838 10.2748 6.16598L8.05615 8.51515H9.75277C14.3858 8.51515 18.8232 6.62276 22.0206 3.29478Z" fill="#718096"/>
</svg>
