<svg width="37" height="38" viewBox="0 0 37 38" fill="none" xmlns="http://www.w3.org/2000/svg">
<path d="M18.3225 0.671326C8.23059 0.671326 -0.00616455 8.90808 -0.00616455 19C-0.00616455 29.0918 8.23059 37.3286 18.3225 37.3286C28.4143 37.3286 36.6511 29.0918 36.6511 19C36.6511 8.90808 28.4143 0.671326 18.3225 0.671326ZM5.11398 19C5.11398 15.2155 6.74648 11.7279 9.34366 9.35331C10.3825 8.38865 12.1634 8.68546 12.9055 9.94694L17.5062 17.8869C17.9514 18.6289 17.9514 19.5194 17.5062 20.2614L12.9055 28.2014C12.1634 29.5371 10.3825 29.7597 9.26945 28.7208C6.74649 26.1978 5.11398 22.7844 5.11398 19ZM23.7394 28.0529L19.1387 20.113C18.6935 19.371 18.6935 18.4805 19.1387 17.7385L23.7394 9.79853C24.4815 8.53704 26.1882 8.24023 27.3013 9.2049C29.8984 11.5795 31.5309 15.0671 31.5309 18.8515C31.5309 22.636 29.8984 26.1236 27.3013 28.4982C26.1882 29.6855 24.4815 29.3886 23.7394 28.0529Z" fill="#718096"/>
</svg>
