<svg width="34" height="32" viewBox="0 0 34 32" fill="none" xmlns="http://www.w3.org/2000/svg">
<path d="M19.8702 24.719C17.2731 23.7544 14.6017 23.606 12.1529 24.2738C10.4462 24.719 8.8137 25.6095 7.3296 26.7226L6.29071 27.613L5.9939 27.9098L6.66174 28.5035C6.73594 28.5035 6.73595 28.5777 6.81016 28.6519C6.95857 28.8003 7.10698 28.8745 7.3296 29.0229L7.77481 29.3197L8.22005 28.9487C8.29425 28.8745 8.44266 28.7261 8.59107 28.6519C9.92676 27.5388 11.4109 26.7968 12.9692 26.4257C14.9727 25.9063 17.1246 25.9805 19.2766 26.7968C21.0575 27.4646 24.6935 28.2809 29.0716 26.4257L29.2201 26.3515L29.4427 26.1289C29.4427 26.0547 29.5169 26.0547 29.5911 25.9805C29.9621 25.5353 30.3331 25.0901 30.6299 24.5706L32.114 22.2703L29.7395 23.6059C26.2518 25.5353 23.061 25.9063 19.8702 24.719Z" fill="#718096"/>
<path d="M9.70409 16.7049C11.7076 16.1855 13.8596 16.2597 16.0115 17.0759C18.3861 17.9664 24.4709 19.2279 31.2977 13.0689L32.4108 11.9558L32.485 11.8816L32.7818 11.5848L32.6334 11.2137C32.5592 10.9169 32.4108 10.5459 32.2624 10.1749L31.8914 9.13599L31.1493 9.87804C31.0751 10.0264 30.9267 10.1007 30.7783 10.2491C27.5133 13.5883 22.4673 17.0017 16.6794 14.924C14.0822 13.9593 11.4108 13.8109 8.96204 14.4788C6.58748 15.1466 4.50974 16.4081 2.58041 18.189V18.1148L1.46734 19.3021C1.46734 19.3763 1.39315 19.3763 1.31894 19.4505L1.09631 19.6731L1.17052 19.9699C1.24473 20.3409 1.39313 20.712 1.46734 21.083L1.91257 22.2703L2.65462 21.3056C2.72883 21.1572 2.87723 21.083 2.95144 20.9346C4.50974 19.5247 6.66169 17.5212 9.70409 16.7049Z" fill="#718096"/>
<path d="M2.50628 15.3693C4.21299 13.5883 6.14231 12.4753 8.22005 11.8816C10.2236 11.3622 12.3755 11.4364 14.5275 12.2526C21.2059 14.7014 26.9939 10.6943 29.5169 8.5424L30.4815 7.57774L30.8526 7.28091L30.5557 6.83569C30.3331 6.61308 30.1847 6.31625 29.9621 6.01943L29.5169 5.42578L28.9974 5.94522C28.9232 6.01943 28.7748 6.16784 28.7006 6.24204C25.584 9.21024 20.7607 12.2527 15.2695 10.1749C12.6723 9.21025 10.001 9.06184 7.55221 9.72968C5.9939 10.1749 4.5098 10.917 3.0257 11.8816L1.46739 13.1431C1.31898 13.2915 1.24478 13.3657 1.09637 13.5141L0.94797 13.6625V13.8852C0.873765 14.4046 0.873756 14.924 0.799551 15.3693L0.725342 17.2244L1.98684 15.8887C2.13524 15.7403 2.28366 15.5177 2.50628 15.3693Z" fill="#718096"/>
<path d="M22.0222 29.765L21.8737 30.2102L22.0222 29.765C21.7995 29.6908 21.6511 29.6166 21.4285 29.5423C18.8314 28.5777 16.16 28.4293 13.7112 29.0971C13.1918 29.2455 12.6723 29.3939 12.1529 29.6166L10.372 30.4328L9.92676 30.6554L11.4109 31.1749C11.8561 31.3233 12.3013 31.4717 12.7465 31.6201L12.9691 31.6943L13.1918 31.6201C13.4144 31.5459 13.637 31.3975 13.8596 31.3975C14.008 31.3975 14.1564 31.3233 14.3048 31.2491C16.0858 30.8038 18.0151 30.8038 20.0928 31.4717C20.3154 31.5459 20.4639 31.6201 20.6865 31.6943L21.0575 31.8427L21.2801 31.7685C21.7995 31.6201 22.3932 31.4717 22.8384 31.2491L24.9161 30.507L22.7642 29.9876C22.5416 29.9134 22.2448 29.8392 22.0222 29.765Z" fill="#718096"/>
<path d="M33.3755 14.4045L32.2624 15.5176C32.114 15.666 31.9656 15.8144 31.8172 15.9628C28.7748 18.8568 23.8773 21.9734 18.3861 19.8957C15.7889 18.931 13.1175 18.7826 10.6688 19.4505C8.36842 20.1183 6.29067 21.3056 4.43554 23.0865L3.47089 24.1254L3.17407 24.4964L3.47089 24.9417C3.6935 25.2385 3.84192 25.4611 3.99033 25.7579L4.43554 26.4258L4.95499 25.7579C5.02919 25.6837 5.1776 25.5353 5.2518 25.4611C7.03272 23.5317 8.96205 22.3445 11.1882 21.7508C13.1917 21.2314 15.3437 21.3056 17.4956 22.1219C19.3507 22.7897 21.2801 23.0123 23.2094 22.7897C26.6228 22.4187 30.0363 20.4894 32.5592 18.3374C32.7076 18.189 32.856 18.1148 33.0044 17.9664L33.2271 17.7438V17.5212C33.2271 17.0759 33.3013 16.5565 33.3013 16.1113L33.3755 14.4045Z" fill="#718096"/>
<path d="M5.17762 7.5777L4.95501 7.13246L5.17762 7.5777C5.62285 7.35508 6.1423 7.20667 6.58753 7.05826C8.59107 6.53882 10.743 6.61303 12.895 7.42928C14.3048 7.94871 15.7147 8.17133 17.273 8.17133C20.3896 8.17133 23.5062 7.05826 26.4002 4.90632L27.5133 4.01585L27.8843 3.71903L27.2165 3.19959C26.9939 2.97697 26.6971 2.75437 26.4002 2.60596L25.955 2.30914L25.584 2.60596C25.4356 2.68016 25.3614 2.82857 25.213 2.90277C21.2801 5.87097 17.3472 6.68723 13.637 5.27734C10.9656 4.31268 8.29423 4.09006 5.62285 4.90632C5.40024 4.98052 5.17762 5.05472 4.8808 5.12892L4.73241 5.20313L4.50978 5.42574C4.50978 5.49994 4.43559 5.49995 4.36138 5.57416C4.06456 6.01939 3.69353 6.39042 3.39671 6.83565L1.98682 8.98759L4.28717 7.8003C4.6582 7.8003 4.95501 7.6519 5.17762 7.5777Z" fill="#718096"/>
<path d="M11.2625 2.53177L11.4851 2.60598C12.4498 2.97701 13.9339 3.34803 15.789 3.34803C17.7183 3.34803 19.5735 2.9028 21.4286 2.16075L23.7289 1.04767L22.1706 0.528251C21.7254 0.379841 21.2802 0.231432 20.7607 0.157227H20.5381L20.3155 0.231413C20.0929 0.305618 19.8703 0.454046 19.6477 0.528251C17.4215 1.34451 15.1954 1.49292 13.0434 0.899276C12.8208 0.825071 12.5982 0.750853 12.3756 0.676648L12.153 0.602438L11.9303 0.676648C11.4851 0.825058 11.0399 0.973476 10.5947 1.19609L8.88794 1.93814L10.6689 2.45756C10.8173 2.38336 11.0399 2.45757 11.2625 2.53177Z" fill="#718096"/>
</svg>
