<svg width="40" height="40" viewBox="0 0 40 40" fill="none" xmlns="http://www.w3.org/2000/svg">
<path d="M13.9091 15.9558C19.0292 13.507 23.0363 9.35155 25.3366 4.15721C23.8525 2.5989 21.9232 1.48583 19.8454 0.817985L18.7324 0.44696C18.6582 0.59537 18.584 0.817994 18.584 0.966404C16.803 6.01234 13.167 10.0936 8.26948 12.394C4.85606 14.0265 2.33308 16.9947 1.14581 20.5565L0.77478 21.6696C0.92319 21.7438 1.14581 21.818 1.29422 21.818C2.70411 22.3374 4.11401 23.0053 5.44969 23.8215C7.30482 20.4823 10.273 17.6625 13.9091 15.9558Z" fill="#718096"/>
<path d="M35.4285 16.2526C32.683 20.4081 28.8985 23.7473 24.2236 25.9735C20.4391 27.7544 17.5452 31.0936 16.2095 35.1007L15.8384 36.3622C17.2483 37.6237 18.955 38.5883 20.8102 39.182L21.9232 39.553C21.9974 39.4046 22.0717 39.182 22.0717 39.0336C23.8526 33.9876 27.4886 29.9063 32.3861 27.606C35.7996 25.9735 38.3967 23.0053 39.5098 19.4435L39.8808 18.3304C38.3225 17.8851 36.8384 17.1431 35.4285 16.2526Z" fill="#718096"/>
<path d="M12.8702 32.5035C14.7253 28.0512 18.1387 24.4152 22.5168 22.3374C26.5239 20.4081 29.8631 17.4399 32.1635 13.8039C30.4567 12.1714 29.0468 10.3162 28.008 8.09009C25.2624 13.136 20.9585 17.2173 15.69 19.7403C12.6476 21.1502 10.1988 23.5989 8.71469 26.5671C10.3472 28.1254 11.6829 30.0548 12.7218 32.2067C12.7218 32.2067 12.796 32.3551 12.8702 32.5035Z" fill="#718096"/>
</svg>
