<svg width="34" height="36" viewBox="0 0 34 36" fill="none" xmlns="http://www.w3.org/2000/svg">
<path d="M18.9691 24.3074C18.9691 20.2261 22.3083 16.9611 26.3896 16.9611H29.1352C31.4355 16.9611 33.2906 15.106 33.2906 12.8056H26.3896C25.7959 12.8056 25.2023 12.8798 24.6829 12.954C23.4214 13.1024 23.0504 11.3215 24.2376 10.9505C24.9055 10.7279 25.6475 10.6537 26.3896 10.6537H29.1352C31.4355 10.6537 33.2906 8.79856 33.2906 6.49821H26.3896C25.6475 6.49821 24.9797 6.57241 24.3118 6.72082C23.1246 6.94344 22.6051 5.23672 23.7924 4.79149C24.6087 4.49467 25.4991 4.27206 26.4638 4.27206H29.1352C31.4355 4.27206 33.2906 2.41693 33.2906 0.116577H26.4638C20.0822 0.116577 14.7394 5.23673 14.8136 11.5441C14.8878 15.6996 11.5486 19.0388 7.39311 19.0388H4.79594C2.49559 19.0388 0.640462 20.894 0.640462 23.1943H7.31891C8.06096 23.1943 8.7288 23.1201 9.39664 22.9717C10.5839 22.7491 11.1034 24.4558 9.91608 24.901C9.09983 25.1979 8.20937 25.4205 7.2447 25.4205H4.64753C2.34718 25.4205 0.492051 27.2756 0.492051 29.5759H7.1705C7.76414 29.5759 8.35778 29.5017 8.87721 29.4275C10.1387 29.2791 10.5097 31.06 9.32244 31.4311C8.6546 31.6537 7.91255 31.7279 7.1705 31.7279H4.57332C2.27297 31.7279 0.417847 33.583 0.417847 35.8834H7.09629C13.7747 35.8834 18.9691 30.689 18.9691 24.3074Z" fill="#718096"/>
</svg>
