<svg width="35" height="36" viewBox="0 0 35 36" fill="none" xmlns="http://www.w3.org/2000/svg">
<path d="M11.0115 1.22961L13.9797 4.04939C15.0928 5.08826 15.6865 6.49816 15.6865 8.05647C15.6865 9.54057 16.2801 10.9505 17.319 11.9893L17.69 12.3604L21.1034 1.30381" fill="#718096"/>
<path d="M0.919678 11.0989L5.00095 10.9505C6.48505 10.8763 7.96914 11.4699 9.00801 12.5088C10.0469 13.5476 11.4568 14.0671 12.9409 14.0671H13.4603L7.96915 3.901" fill="#718096"/>
<path d="M0.919639 25.1978L3.66522 22.2296C4.70409 21.1166 6.11398 20.4487 7.59808 20.4487C9.08218 20.4487 10.4179 19.7809 11.4567 18.742L11.8278 18.371L0.697021 15.1802" fill="#718096"/>
<path d="M11.0115 34.9929L10.7889 30.9116C10.7147 29.4275 11.2341 27.9434 12.273 26.8303C13.2377 25.7915 13.8313 24.3074 13.7571 22.8975V22.3781L3.66522 28.0918" fill="#718096"/>
<path d="M25.1104 34.696L22.068 32.0247C20.955 31.06 20.2871 29.6501 20.2129 28.0918C20.1387 26.6077 19.4709 25.272 18.432 24.2331L18.061 23.8621L15.0928 35.0671" fill="#718096"/>
<path d="M34.7571 24.3816L30.6758 24.6784C29.1917 24.8268 27.7076 24.3074 26.5945 23.2685C25.4815 22.3039 24.0716 21.7844 22.5875 21.8586H22.0681L28.0044 31.8021" fill="#718096"/>
<path d="M34.0893 10.3568L31.4921 13.4734C30.5274 14.5865 29.1176 15.3285 27.6335 15.4028C26.1494 15.477 24.8137 16.1448 23.849 17.2579L23.5522 17.6289L34.8313 20.3003" fill="#718096"/>
<path d="M23.6264 0.9328L23.9974 5.01407C24.1458 6.49817 23.7006 7.98228 22.6618 9.16955C21.6971 10.2826 21.2519 11.6925 21.3261 13.1766L21.4003 13.696L31.1953 7.53705" fill="#718096"/>
</svg>
