<svg width="33" height="30" viewBox="0 0 33 30" fill="none" xmlns="http://www.w3.org/2000/svg">
<path d="M28.1484 0.418701H0.544189C2.54772 0.863931 3.95761 2.64485 3.95761 4.64838V29.5812C6.70319 26.8357 8.18729 23.1996 8.18729 19.341V5.39043C8.18729 5.01941 8.48411 4.64838 8.92934 4.64838C9.30036 4.64838 9.67139 4.9452 9.67139 5.39043V23.9417C12.417 21.1961 13.9011 17.56 13.9011 13.7014V5.39043C13.9011 5.01941 14.1979 4.64838 14.6431 4.64838C15.0142 4.64838 15.3852 4.9452 15.3852 5.39043V18.3021L19.0954 14.5918C19.2438 14.4434 19.318 14.295 19.3922 14.1466V14.0724C19.5407 13.8498 19.5407 13.6272 19.6149 13.3304C19.9859 8.50704 23.9929 4.64838 28.9647 4.64838H32.4523L28.1484 0.418701Z" fill="#718096"/>
</svg>
