<svg width="34" height="28" viewBox="0 0 34 28" fill="none" xmlns="http://www.w3.org/2000/svg">
<path d="M33.2578 22.9377H33.7289V20.8931C33.7289 18.907 32.0799 17.2713 30.0775 17.2713C28.4874 17.2713 27.074 16.1029 26.8384 14.5841C26.6618 13.6494 26.9562 12.7148 27.5452 11.9554C28.1341 11.2544 29.0764 10.8454 30.0186 10.8454C32.0799 10.8454 33.7289 9.20979 33.7289 7.1652V5.12062H33.2578C30.1364 5.12062 27.4274 3.13445 26.4262 0.272034H20.2424V6.98995C20.2424 8.5672 19.0646 9.9692 17.5334 10.2029C17.2978 10.2613 17.0622 10.2613 16.8856 10.2613C15.1777 10.1444 13.8231 8.74245 13.8231 7.04836V0.272034H7.63938C6.6382 3.13445 3.92913 5.12062 0.807814 5.12062H0.33667V7.1652C0.33667 9.15137 1.98567 10.787 3.98802 10.787C5.57813 10.787 6.99156 11.9554 7.22713 13.4742C7.40381 14.4089 7.10934 15.3435 6.52042 16.1029C5.93149 16.8039 4.9892 17.2129 4.04692 17.2129C1.98567 17.2129 0.33667 18.8485 0.33667 20.8347V22.8793H0.807814C3.92913 22.8793 6.6382 24.8654 7.63938 27.7279H13.8231V21.0099C13.8231 19.4327 15.001 18.0307 16.5322 17.797C16.7089 17.7386 16.9444 17.7386 17.1211 17.7386C18.8879 17.8555 20.2424 19.2575 20.2424 20.9515V27.7279H26.4262C27.3685 24.9239 30.1364 22.9377 33.2578 22.9377Z" fill="#718096"/>
</svg>
