<svg width="25" height="38" viewBox="0 0 25 38" fill="none" xmlns="http://www.w3.org/2000/svg">
<path d="M0.923262 8.53705H0.478027V15.7349H9.2342C10.0505 15.7349 10.3473 16.848 9.60523 17.219L7.89852 18.0353C5.59817 19.1484 3.29782 19.742 0.923262 19.742H0.478027V26.9399H9.0116C9.82785 26.9399 10.1247 28.053 9.38262 28.424L7.60171 29.2402C5.44976 30.2791 3.14941 30.7985 0.923262 30.7985H0.478027V37.9964H9.0116L9.97625 36.8091C14.1317 31.9858 18.955 29.4629 24.001 29.4629H24.372V22.265H15.8384C15.0222 22.265 14.7254 21.1519 15.4674 20.7809L17.2484 19.9646C19.4003 18.9257 21.7006 18.4063 23.9268 18.4063H24.2978V11.2084H15.6158C14.7996 11.2084 14.5028 10.0954 15.2448 9.72433L16.9515 8.90807C19.2519 7.795 21.5522 7.20137 23.9268 7.20137H24.2978V0.003479H15.7643L14.7996 1.19076C10.7925 6.01408 5.89499 8.53705 0.923262 8.53705Z" fill="#718096"/>
</svg>
