<svg width="1413" height="402" viewBox="0 0 1413 402" fill="none" xmlns="http://www.w3.org/2000/svg">
<path d="M30.2383 42.5701L49.8623 86.6036C61.829 113.455 100.517 111.698 110 83.8719V83.8719C119.484 56.046 158.172 54.2887 170.139 81.1403L189.763 125.174" stroke="#2D3748" strokeWidth="29.4557" stroke-linecap="round"/>
<path d="M15.4673 220.798V220.798C56.0318 296.039 163.969 296.039 204.533 220.798V220.798" stroke="#2D3748" strokeWidth="29.4557" stroke-linecap="round"/>
<path d="M325.741 101.686H345.771V192.999H470.664V101.686H490.693V312H470.664V210.083H345.771V312H325.741V101.686ZM527.838 206.548C528.427 197.712 530.292 190.053 533.434 183.573C536.576 177.093 540.798 171.791 546.1 167.667C551.598 163.543 557.981 160.499 565.246 158.536C572.512 156.572 580.563 155.59 589.4 155.59C596.077 155.59 602.753 156.277 609.43 157.652C616.107 158.83 622.096 161.187 627.398 164.721C632.7 168.256 637.02 173.264 640.358 179.744C643.697 186.028 645.366 194.275 645.366 204.487V285.195C645.366 292.657 648.999 296.388 656.265 296.388C658.425 296.388 660.388 295.996 662.156 295.21V310.822C659.996 311.215 658.032 311.509 656.265 311.705C654.694 311.902 652.632 312 650.079 312C645.366 312 641.537 311.411 638.591 310.233C635.842 308.858 633.682 306.993 632.111 304.636C630.54 302.28 629.46 299.53 628.871 296.388C628.478 293.05 628.282 289.417 628.282 285.49H627.692C624.354 290.399 620.918 294.817 617.383 298.745C614.045 302.476 610.215 305.618 605.895 308.171C601.771 310.724 596.96 312.687 591.462 314.062C586.16 315.437 579.778 316.124 572.316 316.124C565.246 316.124 558.57 315.24 552.286 313.473C546.198 311.902 540.798 309.349 536.085 305.814C531.569 302.083 527.936 297.469 525.187 291.97C522.634 286.275 521.357 279.599 521.357 271.94C521.357 261.336 523.714 253.089 528.427 247.197C533.14 241.11 539.325 236.495 546.984 233.353C554.839 230.211 563.577 228.051 573.199 226.873C583.018 225.498 592.935 224.222 602.95 223.044C606.877 222.651 610.314 222.16 613.259 221.571C616.205 220.982 618.659 220 620.623 218.625C622.587 217.054 624.06 214.992 625.041 212.44C626.22 209.887 626.809 206.548 626.809 202.425C626.809 196.141 625.729 191.035 623.569 187.108C621.605 182.984 618.758 179.744 615.026 177.387C611.492 175.031 607.27 173.46 602.361 172.674C597.648 171.693 592.542 171.202 587.044 171.202C575.261 171.202 565.639 174.049 558.177 179.744C550.715 185.242 546.787 194.177 546.395 206.548H527.838ZM626.809 228.935H626.22C625.041 231.095 622.783 232.666 619.445 233.648C616.107 234.63 613.161 235.317 610.608 235.71C602.753 237.084 594.604 238.361 586.16 239.539C577.912 240.521 570.352 242.092 563.479 244.252C556.606 246.412 550.911 249.554 546.395 253.678C542.074 257.605 539.914 263.3 539.914 270.762C539.914 275.475 540.798 279.697 542.565 283.428C544.529 286.963 547.082 290.105 550.224 292.854C553.366 295.407 556.999 297.37 561.123 298.745C565.246 300.12 569.468 300.807 573.788 300.807C580.858 300.807 587.633 299.727 594.113 297.567C600.593 295.407 606.19 292.265 610.903 288.141C615.812 284.017 619.641 279.01 622.39 273.118C625.336 267.227 626.809 260.551 626.809 253.089V228.935ZM773.367 204.487C773.171 198.792 771.993 193.883 769.832 189.759C767.672 185.439 764.727 181.904 760.996 179.155C757.461 176.405 753.337 174.442 748.624 173.264C743.911 171.889 738.904 171.202 733.602 171.202C729.478 171.202 725.256 171.693 720.936 172.674C716.812 173.46 712.983 174.933 709.448 177.093C705.914 179.056 703.066 181.707 700.906 185.046C698.746 188.384 697.666 192.508 697.666 197.417C697.666 201.541 698.648 205.076 700.611 208.021C702.772 210.77 705.423 213.127 708.565 215.091C711.706 217.054 715.143 218.724 718.874 220.098C722.605 221.276 726.042 222.258 729.184 223.044L753.926 228.64C759.228 229.426 764.432 230.899 769.538 233.059C774.84 235.022 779.455 237.673 783.382 241.012C787.506 244.35 790.844 248.474 793.397 253.383C795.95 258.292 797.226 264.085 797.226 270.762C797.226 279.01 795.361 286.079 791.63 291.97C787.899 297.665 783.088 302.378 777.196 306.109C771.502 309.644 765.021 312.196 757.756 313.767C750.49 315.338 743.322 316.124 736.253 316.124C718.383 316.124 703.852 311.902 692.658 303.458C681.662 295.014 675.378 281.464 673.807 262.809H692.364C693.149 275.377 697.666 284.901 705.914 291.381C714.358 297.665 724.765 300.807 737.137 300.807C741.653 300.807 746.268 300.316 750.981 299.334C755.89 298.352 760.407 296.683 764.53 294.327C768.654 291.97 771.993 289.025 774.545 285.49C777.295 281.759 778.669 277.242 778.669 271.94C778.669 267.424 777.687 263.693 775.724 260.747C773.956 257.605 771.502 255.052 768.36 253.089C765.218 250.928 761.585 249.161 757.461 247.787C753.534 246.412 749.508 245.234 745.384 244.252L721.525 238.95C715.438 237.379 709.841 235.611 704.735 233.648C699.63 231.488 695.113 228.935 691.186 225.989C687.455 222.847 684.509 219.116 682.349 214.796C680.189 210.28 679.109 204.781 679.109 198.301C679.109 190.642 680.778 184.064 684.116 178.566C687.651 173.067 692.168 168.649 697.666 165.31C703.164 161.972 709.252 159.518 715.928 157.947C722.801 156.376 729.576 155.59 736.253 155.59C743.911 155.59 750.981 156.572 757.461 158.536C764.138 160.499 769.931 163.543 774.84 167.667C779.946 171.791 783.971 176.896 786.917 182.984C789.862 189.071 791.532 196.239 791.924 204.487H773.367ZM823.868 101.686H842.425V186.224H843.014C846.549 176.995 852.832 169.631 861.865 164.132C870.899 158.437 880.815 155.59 891.616 155.59C902.22 155.59 911.057 156.965 918.126 159.714C925.392 162.463 931.185 166.391 935.505 171.496C939.825 176.405 942.869 182.493 944.636 189.759C946.403 197.024 947.287 205.174 947.287 214.207V312H928.73V217.153C928.73 210.672 928.141 204.683 926.963 199.185C925.784 193.49 923.723 188.58 920.777 184.457C917.831 180.333 913.806 177.093 908.7 174.736C903.791 172.38 897.605 171.202 890.143 171.202C882.681 171.202 876.004 172.576 870.113 175.325C864.418 177.878 859.509 181.511 855.385 186.224C851.458 190.741 848.316 196.239 845.959 202.719C843.799 209.003 842.621 215.876 842.425 223.338V312H823.868V101.686ZM1005.94 193.883H1074.86C1082.91 193.883 1089.89 192.999 1095.78 191.232C1101.67 189.268 1106.58 186.715 1110.5 183.573C1114.43 180.235 1117.38 176.405 1119.34 172.085C1121.3 167.765 1122.29 163.15 1122.29 158.241C1122.29 131.927 1106.48 118.77 1074.86 118.77H1005.94V193.883ZM985.906 101.686H1074.86C1083.7 101.686 1092.14 102.57 1100.19 104.337C1108.44 105.908 1115.61 108.755 1121.7 112.879C1127.98 116.807 1132.99 122.109 1136.72 128.785C1140.45 135.266 1142.32 143.415 1142.32 153.234C1142.32 158.732 1141.43 164.132 1139.67 169.434C1137.9 174.54 1135.35 179.253 1132.01 183.573C1128.86 187.697 1125.04 191.232 1120.52 194.177C1116.2 197.123 1111.29 199.185 1105.79 200.363V200.952C1119.34 202.719 1130.14 208.316 1138.19 217.742C1146.24 226.971 1150.27 238.459 1150.27 252.205C1150.27 255.543 1149.97 259.372 1149.39 263.693C1148.8 267.816 1147.62 272.137 1145.85 276.653C1144.08 280.973 1141.53 285.293 1138.19 289.614C1134.85 293.934 1130.34 297.763 1124.64 301.101C1119.14 304.243 1112.27 306.894 1104.02 309.054C1095.97 311.018 1086.25 312 1074.86 312H985.906V101.686ZM1005.94 294.916H1074.86C1082.32 294.916 1089.39 294.327 1096.07 293.148C1102.75 291.774 1108.64 289.417 1113.74 286.079C1118.85 282.741 1122.88 278.322 1125.82 272.824C1128.77 267.129 1130.24 260.06 1130.24 251.616C1130.24 238.066 1125.43 227.953 1115.81 221.276C1106.38 214.403 1092.73 210.967 1074.86 210.967H1005.94V294.916ZM1243.05 171.202C1234.22 171.202 1226.46 173.067 1219.78 176.798C1213.11 180.529 1207.51 185.439 1202.99 191.526C1198.67 197.614 1195.33 204.585 1192.98 212.44C1190.82 220.098 1189.74 227.953 1189.74 236.004C1189.74 244.055 1190.82 252.008 1192.98 259.863C1195.33 267.522 1198.67 274.395 1202.99 280.482C1207.51 286.57 1213.11 291.479 1219.78 295.21C1226.46 298.941 1234.22 300.807 1243.05 300.807C1251.89 300.807 1259.65 298.941 1266.32 295.21C1273 291.479 1278.5 286.57 1282.82 280.482C1287.33 274.395 1290.67 267.522 1292.83 259.863C1295.19 252.008 1296.37 244.055 1296.37 236.004C1296.37 227.953 1295.19 220.098 1292.83 212.44C1290.67 204.585 1287.33 197.614 1282.82 191.526C1278.5 185.439 1273 180.529 1266.32 176.798C1259.65 173.067 1251.89 171.202 1243.05 171.202ZM1243.05 155.59C1254.64 155.59 1264.85 157.75 1273.69 162.07C1282.72 166.391 1290.28 172.183 1296.37 179.449C1302.45 186.715 1307.07 195.257 1310.21 205.076C1313.35 214.698 1314.92 225.007 1314.92 236.004C1314.92 247.001 1313.35 257.409 1310.21 267.227C1307.07 276.849 1302.45 285.293 1296.37 292.559C1290.28 299.825 1282.72 305.618 1273.69 309.938C1264.85 314.062 1254.64 316.124 1243.05 316.124C1231.47 316.124 1221.16 314.062 1212.12 309.938C1203.29 305.618 1195.83 299.825 1189.74 292.559C1183.65 285.293 1179.04 276.849 1175.89 267.227C1172.75 257.409 1171.18 247.001 1171.18 236.004C1171.18 225.007 1172.75 214.698 1175.89 205.076C1179.04 195.257 1183.65 186.715 1189.74 179.449C1195.83 172.183 1203.29 166.391 1212.12 162.07C1221.16 157.75 1231.47 155.59 1243.05 155.59ZM1371.97 160.008H1402.9V175.62H1371.97V278.126C1371.97 284.213 1372.76 289.025 1374.33 292.559C1376.09 295.898 1380.32 297.763 1386.99 298.156C1392.29 298.156 1397.6 297.861 1402.9 297.272V312.884C1400.15 312.884 1397.4 312.982 1394.65 313.178C1391.9 313.375 1389.15 313.473 1386.4 313.473C1374.03 313.473 1365.39 311.116 1360.48 306.403C1355.57 301.494 1353.22 292.559 1353.41 279.599V175.62H1326.9V160.008H1353.41V114.352H1371.97V160.008Z" fill="#2D3748"/>
</svg>
