<svg width="145" height="157" viewBox="0 0 145 157" fill="none" xmlns="http://www.w3.org/2000/svg">
<rect x="8.8501" y="46.375" width="110.625" height="110.625" rx="17.7" fill="#4A5568"/>
<rect x="11.8" y="49.3252" width="104.725" height="104.725" rx="17.7" fill="#2D3748"/>
<rect x="14.75" y="52.2749" width="98.825" height="98.825" rx="17.7" fill="#1A202C"/>
<mask id="path-4-inside-1_34208_5907" fill="white">
<path d="M30.4077 34.5988C32.9377 25.1565 42.6433 19.553 52.0857 22.0831L120.473 40.4074C129.916 42.9375 135.519 52.6431 132.989 62.0854L114.665 130.473C112.135 139.915 102.429 145.519 92.9866 142.989L24.5991 124.664C15.1567 122.134 9.55322 112.429 12.0833 102.986L30.4077 34.5988Z"/>
</mask>
<path d="M30.4077 34.5988C32.9377 25.1565 42.6433 19.553 52.0857 22.0831L120.473 40.4074C129.916 42.9375 135.519 52.6431 132.989 62.0854L114.665 130.473C112.135 139.915 102.429 145.519 92.9866 142.989L24.5991 124.664C15.1567 122.134 9.55322 112.429 12.0833 102.986L30.4077 34.5988Z" fill="url(#paint0_linear_34208_5907)"/>
<path d="M34.9888 17.502L137.57 44.9885L34.9888 17.502ZM110.084 147.57L7.50219 120.083L110.084 147.57ZM24.5991 124.664C14.3699 121.923 8.29939 111.409 11.0403 101.18L28.6012 35.6418C31.3421 25.4126 41.8564 19.3421 52.0857 22.0831C43.4302 19.7638 34.3625 25.5382 31.8324 34.9806L13.508 103.368C10.978 112.81 15.9436 122.345 24.5991 124.664ZM137.57 44.9885L110.084 147.57L137.57 44.9885Z" fill="url(#paint1_radial_34208_5907)" mask="url(#path-4-inside-1_34208_5907)"/>
<path d="M59.3486 62.5104L62.1196 70.2515C64.0809 75.7309 71.1516 77.1824 75.113 72.919V72.919C79.0745 68.6555 86.1452 70.1071 88.1065 75.5864L90.8775 83.3275" stroke="white" strokeWidth="5.31" stroke-linecap="round"/>
<path d="M48.9275 88.5791V88.5791C56.2015 104.217 75.8418 109.479 89.96 99.5737V99.5737" stroke="white" strokeWidth="5.31" stroke-linecap="round"/>
<defs>
<linearGradient id="paint0_linear_34208_5907" x1="21.2455" y1="68.7926" x2="123.827" y2="96.2792" gradientUnits="userSpaceOnUse">
<stop stop-color="#4C2EEB"/>
<stop offset="1" stop-color="#835EE7"/>
</linearGradient>
<radialGradient id="paint1_radial_34208_5907" cx="0" cy="0" r="1" gradientUnits="userSpaceOnUse" gradientTransform="translate(22.5305 66.8464) rotate(105) scale(37.6125 37.6125)">
<stop stop-color="white"/>
<stop offset="1" stop-color="#666666"/>
</radialGradient>
</defs>
</svg>
